<?xml version="1.0" encoding="UTF-8" standalone="no"?>
<svg xmlns:dc="http://purl.org/dc/elements/1.1/" xmlns:cc="http://creativecommons.org/ns#" xmlns:rdf="http://www.w3.org/1999/02/22-rdf-syntax-ns#" xmlns:svg="http://www.w3.org/2000/svg" xmlns="http://www.w3.org/2000/svg" xmlns:xlink="http://www.w3.org/1999/xlink" width="48" height="48" id="svg2670" version="1.0">
  <defs id="defs2672">
    <linearGradient id="linearGradient6549">
      <stop offset="0" id="stop6551" stop-color="#ffffff" stop-opacity="1"/>
      <stop offset="1" id="stop6553" stop-color="#ffffff" stop-opacity="0"/>
    </linearGradient>
    <linearGradient id="linearGradient6527">
      <stop offset="0" id="stop6530" stop-color="#ffffff" stop-opacity="1"/>
      <stop offset="1" id="stop6532" stop-color="#ffffff" stop-opacity="0"/>
    </linearGradient>
    <linearGradient id="linearGradient6538">
      <stop offset="0" id="stop6540" stop-color="#ffffff" stop-opacity="1"/>
      <stop offset="1" id="stop6542" stop-color="#ffffff" stop-opacity="0"/>
    </linearGradient>
    <linearGradient id="linearGradient6513">
      <stop offset="0" id="stop6515" stop-color="#ffffff" stop-opacity="1"/>
      <stop offset="1" id="stop6517" stop-color="#ffffff" stop-opacity="0"/>
    </linearGradient>
    <linearGradient id="linearGradient6497">
      <stop offset="0" id="stop6499" stop-color="#ffffff" stop-opacity="1"/>
      <stop offset="1" id="stop6501" stop-color="#ffffff" stop-opacity="0"/>
    </linearGradient>
    <linearGradient id="linearGradient6470">
      <stop offset="0" id="stop6472" stop-color="#ffffff" stop-opacity="1"/>
      <stop offset="1" id="stop6474" stop-color="#ffffff" stop-opacity="0"/>
    </linearGradient>
    <linearGradient xlink:href="#linearGradient6470" id="linearGradient5689" gradientUnits="userSpaceOnUse" x1="271.02170" y1="-441.05182" x2="285.02859" y2="-431.96991"/>
    <linearGradient xlink:href="#linearGradient6497" id="linearGradient5691" gradientUnits="userSpaceOnUse" x1="287.51730" y1="-439.75281" x2="289.67633" y2="-436.32199"/>
    <linearGradient xlink:href="#linearGradient6513" id="linearGradient5693" gradientUnits="userSpaceOnUse" x1="286.51172" y1="-441.29074" x2="289.85379" y2="-436.14453"/>
    <linearGradient xlink:href="#linearGradient6538" id="linearGradient5695" gradientUnits="userSpaceOnUse" x1="285.94086" y1="-439.93900" x2="289.39124" y2="-436.44290"/>
    <linearGradient xlink:href="#linearGradient6527" id="linearGradient5697" gradientUnits="userSpaceOnUse" x1="275.94193" y1="-437.10501" x2="279.97546" y2="-431.91833"/>
    <linearGradient xlink:href="#linearGradient6549" id="linearGradient5699" gradientUnits="userSpaceOnUse" x1="286.66589" y1="-439.48358" x2="289.76562" y2="-436.70703"/>
    <linearGradient xlink:href="#linearGradient6538" id="linearGradient5701" gradientUnits="userSpaceOnUse" x1="284.80219" y1="-441.23294" x2="288.89954" y2="-436.83109"/>
    <linearGradient xlink:href="#linearGradient6470" id="linearGradient5703" gradientUnits="userSpaceOnUse" x1="271.02170" y1="-441.05182" x2="285.02859" y2="-431.96991"/>
    <linearGradient xlink:href="#linearGradient6497" id="linearGradient5705" gradientUnits="userSpaceOnUse" x1="287.51730" y1="-439.75281" x2="289.67633" y2="-436.32199"/>
    <linearGradient xlink:href="#linearGradient6513" id="linearGradient5707" gradientUnits="userSpaceOnUse" x1="286.51172" y1="-441.29074" x2="289.85379" y2="-436.14453"/>
    <linearGradient xlink:href="#linearGradient6538" id="linearGradient5709" gradientUnits="userSpaceOnUse" x1="285.94086" y1="-439.93900" x2="289.39124" y2="-436.44290"/>
    <linearGradient xlink:href="#linearGradient6527" id="linearGradient5711" gradientUnits="userSpaceOnUse" x1="275.94193" y1="-437.10501" x2="279.97546" y2="-431.91833"/>
    <linearGradient xlink:href="#linearGradient6549" id="linearGradient5713" gradientUnits="userSpaceOnUse" x1="286.66589" y1="-439.48358" x2="289.76562" y2="-436.70703"/>
    <linearGradient xlink:href="#linearGradient6538" id="linearGradient5715" gradientUnits="userSpaceOnUse" x1="284.80219" y1="-441.23294" x2="288.89954" y2="-436.83109"/>
  </defs>
  
  <metadata id="metadata2675">
    <rdf:RDF>
      <cc:Work rdf:about="">
        <dc:format>image/svg+xml</dc:format>
        <dc:type rdf:resource="http://purl.org/dc/dcmitype/StillImage"/>
      </cc:Work>
    </rdf:RDF>
  </metadata>
  <g id="layer1">
    <g transform="translate(5e-6,-4)">
      <g transform="translate(-248.99871,466.5)" opacity="0.45">
        <path d="M 280.5,-445.5 C 278.22917,-445.5 276.39009,-443.94972 275.78125,-441.875 C 275.08802,-442.23883 274.33674,-442.5 273.5,-442.5 C 270.74,-442.5 268.49999,-440.26001 268.5,-437.5 C 268.5,-436.92107 268.66252,-436.3923 268.84375,-435.875 C 267.47028,-435.10426 266.5,-433.686 266.5,-432 C 266.5,-429.516 268.516,-427.49999 271,-427.5 C 271.17713,-427.5 289.82287,-427.5 290,-427.5 C 292.48399,-427.5 294.5,-429.516 294.5,-432 C 294.5,-433.686 293.52972,-435.10426 292.15625,-435.875 C 292.33749,-436.39229 292.5,-436.92108 292.5,-437.5 C 292.5,-440.26 290.26,-442.49999 287.5,-442.5 C 286.66326,-442.5 285.91198,-442.23883 285.21875,-441.875 C 284.60991,-443.94972 282.77083,-445.5 280.5,-445.5 z" fill="#c4c5c2" fill-opacity="1" stroke="#888a85" stroke-width="1" stroke-linecap="butt" stroke-linejoin="miter" stroke-miterlimit="2" stroke-dasharray="none" stroke-dashoffset="0" stroke-opacity="1"/>
        <path d="M 280.5,-445 C 278.31028,-445 276.7764,-443.66423 276.10445,-441.15648 C 275.43599,-441.5001 274.55686,-441.98983 273.75,-441.98983 C 271.03349,-441.98983 268.99486,-440.05101 268.99487,-437.44429 C 268.99487,-436.89752 269.26208,-436.11085 269.43683,-435.62228 C 268.1124,-434.89433 267,-433.73178 267,-432.24973 C 267,-429.90368 268.54617,-427.99964 271.33928,-427.99964 C 271.51009,-427.99964 289.48992,-427.99964 289.66072,-427.99964 C 292.43173,-427.99964 294,-429.90368 294,-432.24973 C 294,-433.8421 292.8876,-434.91642 291.56317,-435.64437 C 291.73793,-436.13293 292.02724,-436.89753 292.02724,-437.44429 C 292.02724,-440.051 289.91143,-442.01192 287.25001,-442.01193 C 286.44314,-442.01193 285.6082,-441.52219 284.93974,-441.17857 C 284.29089,-443.60011 282.68973,-445 280.5,-445 z" opacity="1" fill="url(#linearGradient5689)" fill-opacity="1" stroke="none" stroke-width="0.99999958" stroke-linecap="butt" stroke-linejoin="miter" stroke-miterlimit="2" stroke-dasharray="none" stroke-dashoffset="0" stroke-opacity="1"/>
        <g>
          <path transform="matrix(1.056604,0,0,1.056604,-24.19818,21.86331)" d="M 291.6875,-437.59375 A 3.3125,3.3125 0 1 1 285.0625,-437.59375 A 3.3125,3.3125 0 1 1 291.6875,-437.59375 z" opacity="1" fill="#c4c5c2" fill-opacity="1" stroke="none" stroke-width="1" stroke-linecap="butt" stroke-linejoin="miter" stroke-miterlimit="2" stroke-dasharray="none" stroke-dashoffset="0" stroke-opacity="1"/>
          <path transform="matrix(1.056604,0,0,1.056604,-24.19818,21.86331)" d="M 291.6875,-437.59375 A 3.3125,3.3125 0 1 1 285.0625,-437.59375 A 3.3125,3.3125 0 1 1 291.6875,-437.59375 z" opacity="1" fill="url(#linearGradient5691)" fill-opacity="1" stroke="none" stroke-width="1" stroke-linecap="butt" stroke-linejoin="miter" stroke-miterlimit="2" stroke-dasharray="none" stroke-dashoffset="0" stroke-opacity="1"/>
        </g>
        <rect width="20" height="9" x="271" y="-438" opacity="1" fill="#c4c5c2" fill-opacity="1" stroke="none" stroke-width="1" stroke-linecap="butt" stroke-linejoin="miter" stroke-miterlimit="2" stroke-dasharray="none" stroke-dashoffset="0" stroke-opacity="1"/>
        <path d="M 291.6875,-437.59375 A 3.3125,3.3125 0 1 1 285.0625,-437.59375 A 3.3125,3.3125 0 1 1 291.6875,-437.59375 z" transform="matrix(0.90566,0,0,0.90566,9.830195,-35.68869)" opacity="1" fill="#c4c5c2" fill-opacity="1" stroke="none" stroke-width="1" stroke-linecap="butt" stroke-linejoin="miter" stroke-miterlimit="2" stroke-dasharray="none" stroke-dashoffset="0" stroke-opacity="1"/>
        <g>
          <path transform="matrix(1.056604,0,0,1.056604,-17.19811,24.86321)" d="M 291.6875,-437.59375 A 3.3125,3.3125 0 1 1 285.0625,-437.59375 A 3.3125,3.3125 0 1 1 291.6875,-437.59375 z" opacity="1" fill="#c4c5c2" fill-opacity="1" stroke="none" stroke-width="1" stroke-linecap="butt" stroke-linejoin="miter" stroke-miterlimit="2" stroke-dasharray="none" stroke-dashoffset="0" stroke-opacity="1"/>
          <path transform="matrix(1.056604,0,0,1.056604,-17.19818,24.86331)" d="M 291.6875,-437.59375 A 3.3125,3.3125 0 1 1 285.0625,-437.59375 A 3.3125,3.3125 0 1 1 291.6875,-437.59375 z" opacity="1" fill="url(#linearGradient5693)" fill-opacity="1" stroke="none" stroke-width="1" stroke-linecap="butt" stroke-linejoin="miter" stroke-miterlimit="2" stroke-dasharray="none" stroke-dashoffset="0" stroke-opacity="1"/>
        </g>
        <g>
          <path transform="matrix(1.056604,0,0,1.056604,-31.19818,24.86331)" d="M 291.6875,-437.59375 A 3.3125,3.3125 0 1 1 285.0625,-437.59375 A 3.3125,3.3125 0 1 1 291.6875,-437.59375 z" opacity="1" fill="#c4c5c2" fill-opacity="1" stroke="none" stroke-width="1" stroke-linecap="butt" stroke-linejoin="miter" stroke-miterlimit="2" stroke-dasharray="none" stroke-dashoffset="0" stroke-opacity="1"/>
          <path transform="matrix(1.056604,0,0,1.056604,-31.19818,24.86331)" d="M 291.6875,-437.59375 A 3.3125,3.3125 0 1 1 285.0625,-437.59375 A 3.3125,3.3125 0 1 1 291.6875,-437.59375 z" opacity="1" fill="url(#linearGradient5695)" fill-opacity="1" stroke="none" stroke-width="1" stroke-linecap="butt" stroke-linejoin="miter" stroke-miterlimit="2" stroke-dasharray="none" stroke-dashoffset="0" stroke-opacity="1"/>
        </g>
        <g transform="translate(-1,0)">
          <path d="M 280.46875,-440.96875 C 276.88937,-440.96875 274,-438.04812 274,-434.46875 C 274,-432.09807 275.34943,-430.13096 277.25,-429 L 283.71875,-429 C 285.61932,-430.13096 286.96875,-432.12931 286.96875,-434.5 C 286.96875,-438.07938 284.04812,-440.96875 280.46875,-440.96875 z" opacity="1" fill="#c4c5c2" fill-opacity="1" stroke="none" stroke-width="1" stroke-linecap="butt" stroke-linejoin="miter" stroke-miterlimit="2" stroke-dasharray="none" stroke-dashoffset="0" stroke-opacity="1"/>
          <path d="M 280.5,-441 C 276.912,-441 274,-438.08799 274,-434.5 C 274,-432.1236 275.34485,-430.13368 277.25,-429 L 283.75,-429 C 285.65515,-430.13368 287,-432.1236 287,-434.5 C 287,-438.088 284.088,-440.99999 280.5,-441 z" opacity="1" fill="url(#linearGradient5697)" fill-opacity="1" stroke="none" stroke-width="1" stroke-linecap="butt" stroke-linejoin="miter" stroke-miterlimit="2" stroke-dasharray="none" stroke-dashoffset="0" stroke-opacity="1"/>
        </g>
        <path d="M 291.6875,-437.59375 A 3.3125,3.3125 0 1 1 285.0625,-437.59375 A 3.3125,3.3125 0 1 1 291.6875,-437.59375 z" transform="matrix(0.90566,0,0,0.90566,9.830296,-35.68884)" opacity="1" fill="url(#linearGradient5699)" fill-opacity="1" stroke="none" stroke-width="1" stroke-linecap="butt" stroke-linejoin="miter" stroke-miterlimit="2" stroke-dasharray="none" stroke-dashoffset="0" stroke-opacity="1"/>
        <path d="M 292.9564,-437.33396 C 292.95487,-434.6494 289.68714,-433.62001 289.68714,-433.62001 C 289.68714,-433.62001 292.03588,-435.24596 292.02399,-437.32502 C 292.02399,-437.32502 292.9564,-437.33396 292.9564,-437.33396 z" fill="#888a85" fill-opacity="1" fill-rule="evenodd" stroke="none" stroke-width="1px" stroke-linecap="butt" stroke-linejoin="miter" stroke-opacity="1"/>
        <g transform="matrix(1.142857,0,0,1.142857,-28.57139,67.00008)">
          <path transform="matrix(1.056604,0,0,1.056604,-31.19818,24.86331)" d="M 291.6875,-437.59375 A 3.3125,3.3125 0 1 1 285.0625,-437.59375 A 3.3125,3.3125 0 1 1 291.6875,-437.59375 z" opacity="1" fill="#c4c5c2" fill-opacity="1" stroke="none" stroke-width="1" stroke-linecap="butt" stroke-linejoin="miter" stroke-miterlimit="2" stroke-dasharray="none" stroke-dashoffset="0" stroke-opacity="1"/>
          <path transform="matrix(1.056604,0,0,1.056604,-31.19818,24.86331)" d="M 291.6875,-437.59375 A 3.3125,3.3125 0 1 1 285.0625,-437.59375 A 3.3125,3.3125 0 1 1 291.6875,-437.59375 z" opacity="1" fill="url(#linearGradient5701)" fill-opacity="1" stroke="none" stroke-width="1" stroke-linecap="butt" stroke-linejoin="miter" stroke-miterlimit="2" stroke-dasharray="none" stroke-dashoffset="0" stroke-opacity="1"/>
        </g>
      </g>
      <path d="M 31.501294,21.49982 C 29.311574,21.49982 27.777694,22.83559 27.105744,25.34334 C 26.437284,24.99972 25.558154,24.50999 24.751294,24.50999 C 22.034784,24.50999 19.996154,26.44881 19.996164,29.05553 C 19.996164,29.6023 20.263374,30.38897 20.438124,30.87754 C 19.113694,31.60549 18.001294,32.76804 18.001294,34.25009 C 18.001294,36.59614 19.547464,38.50018 22.340574,38.50018 C 22.511384,38.50018 40.491214,38.50018 40.662014,38.50018 C 43.433024,38.50018 45.001294,36.59614 45.001294,34.25009 C 45.001294,32.65772 43.888894,31.5834 42.564464,30.85545 C 42.739224,30.36689 43.028534,29.60229 43.028534,29.05553 C 43.028534,26.44882 40.912724,24.4879 38.251304,24.48789 C 37.444434,24.48789 36.609494,24.97763 35.941034,25.32125 C 35.292184,22.89971 33.691024,21.49982 31.501294,21.49982 z" opacity="0.45" fill="#ffffff" fill-opacity="1" stroke="none" stroke-width="0.99999958" stroke-linecap="butt" stroke-linejoin="miter" stroke-miterlimit="2" stroke-dasharray="none" stroke-dashoffset="0" stroke-opacity="1"/>
      <g transform="translate(-264.0013,462.5)" opacity="0.45">
        <path d="M 280.5,-445.5 C 278.22917,-445.5 276.39009,-443.94972 275.78125,-441.875 C 275.08802,-442.23883 274.33674,-442.5 273.5,-442.5 C 270.74,-442.5 268.49999,-440.26001 268.5,-437.5 C 268.5,-436.92107 268.66252,-436.3923 268.84375,-435.875 C 267.47028,-435.10426 266.5,-433.686 266.5,-432 C 266.5,-429.516 268.516,-427.49999 271,-427.5 C 271.17713,-427.5 289.82287,-427.5 290,-427.5 C 292.48399,-427.5 294.5,-429.516 294.5,-432 C 294.5,-433.686 293.52972,-435.10426 292.15625,-435.875 C 292.33749,-436.39229 292.5,-436.92108 292.5,-437.5 C 292.5,-440.26 290.26,-442.49999 287.5,-442.5 C 286.66326,-442.5 285.91198,-442.23883 285.21875,-441.875 C 284.60991,-443.94972 282.77083,-445.5 280.5,-445.5 z" fill="#c4c5c2" fill-opacity="1" stroke="#888a85" stroke-width="1" stroke-linecap="butt" stroke-linejoin="miter" stroke-miterlimit="2" stroke-dasharray="none" stroke-dashoffset="0" stroke-opacity="1"/>
        <path d="M 280.5,-445 C 278.31028,-445 276.7764,-443.66423 276.10445,-441.15648 C 275.43599,-441.5001 274.55686,-441.98983 273.75,-441.98983 C 271.03349,-441.98983 268.99486,-440.05101 268.99487,-437.44429 C 268.99487,-436.89752 269.26208,-436.11085 269.43683,-435.62228 C 268.1124,-434.89433 267,-433.73178 267,-432.24973 C 267,-429.90368 268.54617,-427.99964 271.33928,-427.99964 C 271.51009,-427.99964 289.48992,-427.99964 289.66072,-427.99964 C 292.43173,-427.99964 294,-429.90368 294,-432.24973 C 294,-433.8421 292.8876,-434.91642 291.56317,-435.64437 C 291.73793,-436.13293 292.02724,-436.89753 292.02724,-437.44429 C 292.02724,-440.051 289.91143,-442.01192 287.25001,-442.01193 C 286.44314,-442.01193 285.6082,-441.52219 284.93974,-441.17857 C 284.29089,-443.60011 282.68973,-445 280.5,-445 z" opacity="1" fill="url(#linearGradient5703)" fill-opacity="1" stroke="none" stroke-width="0.99999958" stroke-linecap="butt" stroke-linejoin="miter" stroke-miterlimit="2" stroke-dasharray="none" stroke-dashoffset="0" stroke-opacity="1"/>
        <g>
          <path transform="matrix(1.056604,0,0,1.056604,-24.19818,21.86331)" d="M 291.6875,-437.59375 A 3.3125,3.3125 0 1 1 285.0625,-437.59375 A 3.3125,3.3125 0 1 1 291.6875,-437.59375 z" opacity="1" fill="#c4c5c2" fill-opacity="1" stroke="none" stroke-width="1" stroke-linecap="butt" stroke-linejoin="miter" stroke-miterlimit="2" stroke-dasharray="none" stroke-dashoffset="0" stroke-opacity="1"/>
          <path transform="matrix(1.056604,0,0,1.056604,-24.19818,21.86331)" d="M 291.6875,-437.59375 A 3.3125,3.3125 0 1 1 285.0625,-437.59375 A 3.3125,3.3125 0 1 1 291.6875,-437.59375 z" opacity="1" fill="url(#linearGradient5705)" fill-opacity="1" stroke="none" stroke-width="1" stroke-linecap="butt" stroke-linejoin="miter" stroke-miterlimit="2" stroke-dasharray="none" stroke-dashoffset="0" stroke-opacity="1"/>
        </g>
        <rect width="20" height="9" x="271" y="-438" opacity="1" fill="#c4c5c2" fill-opacity="1" stroke="none" stroke-width="1" stroke-linecap="butt" stroke-linejoin="miter" stroke-miterlimit="2" stroke-dasharray="none" stroke-dashoffset="0" stroke-opacity="1"/>
        <path d="M 291.6875,-437.59375 A 3.3125,3.3125 0 1 1 285.0625,-437.59375 A 3.3125,3.3125 0 1 1 291.6875,-437.59375 z" transform="matrix(0.90566,0,0,0.90566,9.830195,-35.68869)" opacity="1" fill="#c4c5c2" fill-opacity="1" stroke="none" stroke-width="1" stroke-linecap="butt" stroke-linejoin="miter" stroke-miterlimit="2" stroke-dasharray="none" stroke-dashoffset="0" stroke-opacity="1"/>
        <g>
          <path transform="matrix(1.056604,0,0,1.056604,-17.19811,24.86321)" d="M 291.6875,-437.59375 A 3.3125,3.3125 0 1 1 285.0625,-437.59375 A 3.3125,3.3125 0 1 1 291.6875,-437.59375 z" opacity="1" fill="#c4c5c2" fill-opacity="1" stroke="none" stroke-width="1" stroke-linecap="butt" stroke-linejoin="miter" stroke-miterlimit="2" stroke-dasharray="none" stroke-dashoffset="0" stroke-opacity="1"/>
          <path transform="matrix(1.056604,0,0,1.056604,-17.19818,24.86331)" d="M 291.6875,-437.59375 A 3.3125,3.3125 0 1 1 285.0625,-437.59375 A 3.3125,3.3125 0 1 1 291.6875,-437.59375 z" opacity="1" fill="url(#linearGradient5707)" fill-opacity="1" stroke="none" stroke-width="1" stroke-linecap="butt" stroke-linejoin="miter" stroke-miterlimit="2" stroke-dasharray="none" stroke-dashoffset="0" stroke-opacity="1"/>
        </g>
        <g>
          <path transform="matrix(1.056604,0,0,1.056604,-31.19818,24.86331)" d="M 291.6875,-437.59375 A 3.3125,3.3125 0 1 1 285.0625,-437.59375 A 3.3125,3.3125 0 1 1 291.6875,-437.59375 z" opacity="1" fill="#c4c5c2" fill-opacity="1" stroke="none" stroke-width="1" stroke-linecap="butt" stroke-linejoin="miter" stroke-miterlimit="2" stroke-dasharray="none" stroke-dashoffset="0" stroke-opacity="1"/>
          <path transform="matrix(1.056604,0,0,1.056604,-31.19818,24.86331)" d="M 291.6875,-437.59375 A 3.3125,3.3125 0 1 1 285.0625,-437.59375 A 3.3125,3.3125 0 1 1 291.6875,-437.59375 z" opacity="1" fill="url(#linearGradient5709)" fill-opacity="1" stroke="none" stroke-width="1" stroke-linecap="butt" stroke-linejoin="miter" stroke-miterlimit="2" stroke-dasharray="none" stroke-dashoffset="0" stroke-opacity="1"/>
        </g>
        <g transform="translate(-1,0)">
          <path d="M 280.46875,-440.96875 C 276.88937,-440.96875 274,-438.04812 274,-434.46875 C 274,-432.09807 275.34943,-430.13096 277.25,-429 L 283.71875,-429 C 285.61932,-430.13096 286.96875,-432.12931 286.96875,-434.5 C 286.96875,-438.07938 284.04812,-440.96875 280.46875,-440.96875 z" opacity="1" fill="#c4c5c2" fill-opacity="1" stroke="none" stroke-width="1" stroke-linecap="butt" stroke-linejoin="miter" stroke-miterlimit="2" stroke-dasharray="none" stroke-dashoffset="0" stroke-opacity="1"/>
          <path d="M 280.5,-441 C 276.912,-441 274,-438.08799 274,-434.5 C 274,-432.1236 275.34485,-430.13368 277.25,-429 L 283.75,-429 C 285.65515,-430.13368 287,-432.1236 287,-434.5 C 287,-438.088 284.088,-440.99999 280.5,-441 z" opacity="1" fill="url(#linearGradient5711)" fill-opacity="1" stroke="none" stroke-width="1" stroke-linecap="butt" stroke-linejoin="miter" stroke-miterlimit="2" stroke-dasharray="none" stroke-dashoffset="0" stroke-opacity="1"/>
        </g>
        <path d="M 291.6875,-437.59375 A 3.3125,3.3125 0 1 1 285.0625,-437.59375 A 3.3125,3.3125 0 1 1 291.6875,-437.59375 z" transform="matrix(0.90566,0,0,0.90566,9.830296,-35.68884)" opacity="1" fill="url(#linearGradient5713)" fill-opacity="1" stroke="none" stroke-width="1" stroke-linecap="butt" stroke-linejoin="miter" stroke-miterlimit="2" stroke-dasharray="none" stroke-dashoffset="0" stroke-opacity="1"/>
        <path d="M 292.9564,-437.33396 C 292.95487,-434.6494 289.68714,-433.62001 289.68714,-433.62001 C 289.68714,-433.62001 292.03588,-435.24596 292.02399,-437.32502 C 292.02399,-437.32502 292.9564,-437.33396 292.9564,-437.33396 z" fill="#888a85" fill-opacity="1" fill-rule="evenodd" stroke="none" stroke-width="1px" stroke-linecap="butt" stroke-linejoin="miter" stroke-opacity="1"/>
        <g transform="matrix(1.142857,0,0,1.142857,-28.57139,67.00008)">
          <path transform="matrix(1.056604,0,0,1.056604,-31.19818,24.86331)" d="M 291.6875,-437.59375 A 3.3125,3.3125 0 1 1 285.0625,-437.59375 A 3.3125,3.3125 0 1 1 291.6875,-437.59375 z" opacity="1" fill="#c4c5c2" fill-opacity="1" stroke="none" stroke-width="1" stroke-linecap="butt" stroke-linejoin="miter" stroke-miterlimit="2" stroke-dasharray="none" stroke-dashoffset="0" stroke-opacity="1"/>
          <path transform="matrix(1.056604,0,0,1.056604,-31.19818,24.86331)" d="M 291.6875,-437.59375 A 3.3125,3.3125 0 1 1 285.0625,-437.59375 A 3.3125,3.3125 0 1 1 291.6875,-437.59375 z" opacity="1" fill="url(#linearGradient5715)" fill-opacity="1" stroke="none" stroke-width="1" stroke-linecap="butt" stroke-linejoin="miter" stroke-miterlimit="2" stroke-dasharray="none" stroke-dashoffset="0" stroke-opacity="1"/>
        </g>
      </g>
      <path d="M 16.498705,17.499819 C 14.308985,17.499819 12.775105,18.835589 12.103155,21.343339 C 11.434695,20.999719 10.555565,20.509989 9.748705,20.509989 C 7.032195,20.509989 4.993565,22.448809 4.993575,25.055529 C 4.993575,25.602299 5.260785,26.388969 5.435535,26.877539 C 4.111105,27.605489 2.998705,28.768039 2.998705,30.250089 C 2.998705,32.596139 4.544875,34.500179 7.337985,34.500179 C 7.508795,34.500179 25.488624,34.500179 25.659424,34.500179 C 28.430434,34.500179 29.998704,32.596139 29.998704,30.250089 C 29.998704,28.657719 28.886304,27.583399 27.561874,26.855449 C 27.736634,26.366889 28.025944,25.602289 28.025944,25.055529 C 28.025944,22.448819 25.910134,20.487899 23.248714,20.487889 C 22.441844,20.487889 21.606904,20.977629 20.938444,21.321249 C 20.289594,18.899709 18.688434,17.499819 16.498705,17.499819 z" opacity="0.45" fill="#ffffff" fill-opacity="1" stroke="none" stroke-width="0.99999958" stroke-linecap="butt" stroke-linejoin="miter" stroke-miterlimit="2" stroke-dasharray="none" stroke-dashoffset="0" stroke-opacity="1"/>
    </g>
  </g>
</svg>
