<?xml version="1.0" encoding="UTF-8" standalone="no"?>
<svg xmlns:dc="http://purl.org/dc/elements/1.1/" xmlns:cc="http://creativecommons.org/ns#" xmlns:rdf="http://www.w3.org/1999/02/22-rdf-syntax-ns#" xmlns:svg="http://www.w3.org/2000/svg" xmlns="http://www.w3.org/2000/svg" xmlns:xlink="http://www.w3.org/1999/xlink" width="48px" height="48px" id="svg1306">
  <defs id="defs1308">
    <linearGradient xlink:href="#linearGradient2254" id="linearGradient11348" gradientUnits="userSpaceOnUse" gradientTransform="matrix(1.070878,0.000000,-0.535439,0.674858,287.5142,77.50802)" x1="-137.49608" y1="-425.28664" x2="-130.60854" y2="-425.28665"/>
    <linearGradient xlink:href="#linearGradient2254" id="linearGradient11346" gradientUnits="userSpaceOnUse" gradientTransform="matrix(1.070879,0.000000,-0.535439,0.674857,277.5140,77.50780)" x1="-137.49608" y1="-425.28664" x2="-130.60854" y2="-425.28665"/>
    <linearGradient xlink:href="#linearGradient2254" id="linearGradient11344" gradientUnits="userSpaceOnUse" gradientTransform="matrix(1.088439,0.000000,-0.544220,0.674842,265.9811,77.50139)" x1="-137.49608" y1="-425.28664" x2="-130.60854" y2="-425.28665"/>
    <linearGradient xlink:href="#linearGradient6538" id="linearGradient13352" gradientUnits="userSpaceOnUse" x1="284.80219" y1="-441.23294" x2="288.89954" y2="-436.83109"/>
    <linearGradient xlink:href="#linearGradient6549" id="linearGradient13350" gradientUnits="userSpaceOnUse" x1="286.66589" y1="-439.48358" x2="289.76562" y2="-436.70703"/>
    <linearGradient xlink:href="#linearGradient6527" id="linearGradient13347" gradientUnits="userSpaceOnUse" gradientTransform="translate(-35.00007,207.0001)" x1="275.94193" y1="-437.10501" x2="279.97546" y2="-431.91833"/>
    <linearGradient xlink:href="#linearGradient6538" id="linearGradient13345" gradientUnits="userSpaceOnUse" x1="285.94086" y1="-439.93900" x2="289.39124" y2="-436.44290"/>
    <linearGradient xlink:href="#linearGradient6513" id="linearGradient13343" gradientUnits="userSpaceOnUse" x1="286.51172" y1="-441.29074" x2="289.85379" y2="-436.14453"/>
    <linearGradient xlink:href="#linearGradient6497" id="linearGradient13341" gradientUnits="userSpaceOnUse" x1="287.51730" y1="-439.75281" x2="289.67633" y2="-436.32199"/>
    <linearGradient xlink:href="#linearGradient6470" id="linearGradient13339" gradientUnits="userSpaceOnUse" gradientTransform="translate(-34.00007,207.0001)" x1="271.02170" y1="-441.05182" x2="285.02859" y2="-431.96991"/>
    <linearGradient xlink:href="#linearGradient6538" id="linearGradient13337" gradientUnits="userSpaceOnUse" x1="284.80219" y1="-441.23294" x2="288.89954" y2="-436.83109"/>
    <linearGradient id="linearGradient6549">
      <stop offset="0" id="stop6551" stop-color="#ffffff" stop-opacity="1"/>
      <stop offset="1" id="stop6553" stop-color="#ffffff" stop-opacity="0"/>
    </linearGradient>
    <linearGradient xlink:href="#linearGradient6549" id="linearGradient13335" gradientUnits="userSpaceOnUse" x1="286.66589" y1="-439.48358" x2="289.76562" y2="-436.70703"/>
    <linearGradient id="linearGradient6527">
      <stop offset="0" id="stop6530" stop-color="#ffffff" stop-opacity="1"/>
      <stop offset="1" id="stop6532" stop-color="#ffffff" stop-opacity="0"/>
    </linearGradient>
    <linearGradient xlink:href="#linearGradient6527" id="linearGradient13333" gradientUnits="userSpaceOnUse" gradientTransform="translate(-35.00007,207.0001)" x1="275.94193" y1="-437.10501" x2="279.97546" y2="-431.91833"/>
    <linearGradient id="linearGradient6538">
      <stop offset="0" id="stop6540" stop-color="#ffffff" stop-opacity="1"/>
      <stop offset="1" id="stop6542" stop-color="#ffffff" stop-opacity="0"/>
    </linearGradient>
    <linearGradient xlink:href="#linearGradient6538" id="linearGradient13331" gradientUnits="userSpaceOnUse" x1="285.94086" y1="-439.93900" x2="289.39124" y2="-436.44290"/>
    <linearGradient id="linearGradient6513">
      <stop offset="0" id="stop6515" stop-color="#ffffff" stop-opacity="1"/>
      <stop offset="1" id="stop6517" stop-color="#ffffff" stop-opacity="0"/>
    </linearGradient>
    <linearGradient xlink:href="#linearGradient6513" id="linearGradient13329" gradientUnits="userSpaceOnUse" x1="286.51172" y1="-441.29074" x2="289.85379" y2="-436.14453"/>
    <linearGradient id="linearGradient6497">
      <stop offset="0" id="stop6499" stop-color="#ffffff" stop-opacity="1"/>
      <stop offset="1" id="stop6501" stop-color="#ffffff" stop-opacity="0"/>
    </linearGradient>
    <linearGradient xlink:href="#linearGradient6497" id="linearGradient13327" gradientUnits="userSpaceOnUse" x1="287.51730" y1="-439.75281" x2="289.67633" y2="-436.32199"/>
    <linearGradient id="linearGradient6470">
      <stop offset="0" id="stop6472" stop-color="#ffffff" stop-opacity="1"/>
      <stop offset="1" id="stop6474" stop-color="#ffffff" stop-opacity="0"/>
    </linearGradient>
    <linearGradient xlink:href="#linearGradient6470" id="linearGradient13325" gradientUnits="userSpaceOnUse" gradientTransform="translate(-34.00007,207.0001)" x1="271.02170" y1="-441.05182" x2="285.02859" y2="-431.96991"/>
    <linearGradient id="linearGradient8397">
      <stop offset="0" id="stop8400" stop-color="#ffffff" stop-opacity="1"/>
      <stop offset="1" id="stop8402" stop-color="#ffffff" stop-opacity="0"/>
    </linearGradient>
    <linearGradient xlink:href="#linearGradient8397" id="linearGradient13323" gradientUnits="userSpaceOnUse" x1="238.00478" y1="-388.47476" x2="245.65462" y2="-382.64539"/>
    <linearGradient id="linearGradient8315">
      <stop offset="0" id="stop8317" stop-color="#ffffff" stop-opacity="1"/>
      <stop offset="1" id="stop8319" stop-color="#ffffff" stop-opacity="0"/>
    </linearGradient>
    <linearGradient xlink:href="#linearGradient8315" id="linearGradient13321" gradientUnits="userSpaceOnUse" x1="230.87598" y1="-390.43951" x2="235.25652" y2="-386.95901"/>
    <linearGradient id="linearGradient8381">
      <stop offset="0" id="stop8383" stop-color="#ffffff" stop-opacity="1"/>
      <stop offset="1" id="stop8385" stop-color="#ffffff" stop-opacity="0"/>
    </linearGradient>
    <linearGradient xlink:href="#linearGradient8381" id="linearGradient13319" gradientUnits="userSpaceOnUse" x1="246.74042" y1="-391.31381" x2="252.69785" y2="-385.35165"/>
    <linearGradient id="linearGradient8331">
      <stop offset="0" id="stop8333" stop-color="#ffffff" stop-opacity="1"/>
      <stop offset="1" id="stop8335" stop-color="#ffffff" stop-opacity="0"/>
    </linearGradient>
    <linearGradient xlink:href="#linearGradient8331" id="linearGradient13317" gradientUnits="userSpaceOnUse" x1="240.07379" y1="-393.40720" x2="245.82706" y2="-388.55029"/>
    <linearGradient id="linearGradient8302">
      <stop offset="0" id="stop8304" stop-color="#ffffff" stop-opacity="1"/>
      <stop offset="1" id="stop8306" stop-color="#ffffff" stop-opacity="0"/>
    </linearGradient>
    <linearGradient xlink:href="#linearGradient8302" id="linearGradient13315" gradientUnits="userSpaceOnUse" gradientTransform="translate(69.00000,155.0000)" x1="228.50261" y1="-392.30591" x2="266.36395" y2="-379.26862"/>
    <linearGradient id="linearGradient2254">
      <stop offset="0" id="stop2256" stop-color="#ffffff" stop-opacity="1"/>
      <stop offset="1" id="stop2258" stop-color="#ffffff" stop-opacity="0"/>
    </linearGradient>
  </defs>
  
  <metadata id="metadata1311">
    <rdf:RDF>
      <cc:Work rdf:about="">
        <dc:format>image/svg+xml</dc:format>
        <dc:type rdf:resource="http://purl.org/dc/dcmitype/StillImage"/>
        <dc:title>weather-showers</dc:title>
        <dc:date>January 2006</dc:date>
        <dc:creator>
          <cc:Agent>
            <dc:title>Ryan collier (pseudo)</dc:title>
          </cc:Agent>
        </dc:creator>
        <dc:publisher>
          <cc:Agent>
            <dc:title>http://www.tango-project.org</dc:title>
          </cc:Agent>
        </dc:publisher>
        <dc:source>http://www.pseudocode.org</dc:source>
        <dc:subject>
          <rdf:Bag>
            <rdf:li>weather</rdf:li>
            <rdf:li>appplet</rdf:li>
            <rdf:li>notify</rdf:li>
          </rdf:Bag>
        </dc:subject>
        <cc:license rdf:resource="http://creativecommons.org/licenses/publicdomain/"/>
      </cc:Work>
      <cc:License rdf:about="http://creativecommons.org/licenses/publicdomain/">
        <cc:permits rdf:resource="http://creativecommons.org/ns#Reproduction"/>
        <cc:permits rdf:resource="http://creativecommons.org/ns#Distribution"/>
        <cc:permits rdf:resource="http://creativecommons.org/ns#DerivativeWorks"/>
      </cc:License>
    </rdf:RDF>
  </metadata>
  <g id="layer1">
    <g transform="translate(-339.9823,245.0132)">
      <rect transform="matrix(1.000000,0.000000,-0.600523,0.799607,0.000000,0.000000)" ry="1.5179254" rx="2.3596079" y="-270.75461" x="189.68199" height="17.509083" width="32.962067" opacity="1.0000000" fill="#729fcf" fill-opacity="1.0000000" stroke="#3465a4" stroke-width="1.0817814" stroke-linecap="butt" stroke-linejoin="miter" stroke-miterlimit="0.0000000" stroke-dasharray="none" stroke-dashoffset="0.0000000" stroke-opacity="1.0000000"/>
      <g transform="matrix(1.000000,0.000000,0.000000,0.999611,0.000000,-7.862650e-2)" opacity="0.80000001">
        <path d="M 352.47790,-216.00000 L 359.39580,-216.00000 C 360.69054,-216.00000 361.33008,-215.50056 360.82979,-214.88017 L 352.15249,-204.12015 C 351.65217,-203.49974 350.20707,-203.00030 348.91233,-203.00030 L 344.86943,-203.00030 C 343.57469,-203.00030 342.30979,-202.95120 343.43545,-204.12015 C 343.43545,-204.12015 352.47790,-216.00000 352.47790,-216.00000 z " fill="url(#linearGradient11344)" fill-opacity="1.0000000" stroke="none" stroke-width="1.1547011" stroke-linecap="butt" stroke-linejoin="miter" stroke-miterlimit="0.0000000" stroke-dashoffset="0.0000000" stroke-opacity="1.0000000"/>
        <path d="M 362.74641,-216.00000 L 369.42169,-216.00000 C 370.69552,-216.00000 371.32477,-215.50054 370.83253,-214.88014 L 362.29523,-204.11987 C 361.80299,-203.49946 360.38121,-203.00000 359.10738,-203.00000 L 353.00000,-203.00000 C 353.00000,-203.00000 362.74641,-216.00000 362.74641,-216.00000 z " fill="url(#linearGradient11346)" fill-opacity="1.0000000" stroke="none" stroke-width="1.1547011" stroke-linecap="butt" stroke-linejoin="miter" stroke-miterlimit="0.0000000" stroke-dashoffset="0.0000000" stroke-opacity="1.0000000"/>
        <path d="M 372.74640,-216.00000 L 379.42169,-216.00000 C 380.69553,-216.00000 381.32477,-215.50053 380.83253,-214.88014 L 372.29523,-204.11986 C 371.80299,-203.49945 370.38122,-203.00000 369.10738,-203.00000 L 363.00000,-203.00000 C 363.00000,-203.00000 372.74640,-216.00000 372.74640,-216.00000 z " fill="url(#linearGradient11348)" fill-opacity="1.0000000" stroke="none" stroke-width="1.1547011" stroke-linecap="butt" stroke-linejoin="miter" stroke-miterlimit="0.0000000" stroke-dashoffset="0.0000000" stroke-opacity="1.0000000"/>
      </g>
    </g>
    <g transform="matrix(0.999675,0.000000,0.000000,1.000000,-286.8562,245.0000)">
      <g>
        <path d="M 311.50000,-242.99998 C 308.72758,-242.99998 306.39177,-241.42627 305.09375,-239.18748 C 304.14939,-239.66252 303.12856,-239.99998 302.00000,-239.99998 C 298.13600,-239.99998 295.00000,-236.86398 295.00000,-232.99998 C 295.00000,-229.13598 298.13600,-225.99998 302.00000,-225.99998 C 304.41967,-225.99998 306.43009,-227.31930 307.68750,-229.18748 C 308.82170,-228.49786 310.07648,-227.99998 311.50000,-227.99998 C 312.41312,-227.99998 313.25295,-228.23200 314.06250,-228.53123 C 314.57244,-227.66350 315.24162,-226.95151 316.06250,-226.37498 C 316.05526,-226.24460 316.00000,-226.13216 316.00000,-225.99998 C 316.00000,-222.13598 319.13599,-218.99998 323.00000,-218.99998 C 326.86400,-218.99998 330.00000,-222.13598 330.00000,-225.99998 C 330.00000,-228.36967 328.74102,-230.35832 326.93750,-231.62498 C 326.94474,-231.75536 327.00000,-231.86780 327.00000,-231.99998 C 327.00000,-235.86398 323.86401,-238.99998 320.00000,-238.99998 C 319.37730,-238.99998 318.82481,-238.77779 318.25000,-238.62498 C 317.05547,-241.18382 314.50866,-242.99998 311.50000,-242.99998 z " opacity="1.0000000" fill="#555753" fill-opacity="1.0000000" stroke="none" stroke-width="1.0000000" stroke-linecap="butt" stroke-linejoin="miter" stroke-miterlimit="2.0000000" stroke-dasharray="none" stroke-dashoffset="0.0000000" stroke-opacity="1.0000000"/>
        <path d="M 311.50000,-241.99998 C 308.71952,-241.99998 306.36549,-240.23813 305.43750,-237.78123 C 304.45208,-238.49067 303.30607,-238.99998 302.00000,-238.99998 C 298.68800,-238.99998 296.00000,-236.31198 296.00000,-232.99998 C 296.00000,-229.68798 298.68800,-226.99998 302.00000,-226.99998 C 304.42775,-226.99998 306.49324,-228.45556 307.43750,-230.53123 C 308.55826,-229.61367 309.93964,-228.99998 311.50000,-228.99998 C 312.57454,-228.99998 313.54428,-229.31894 314.43750,-229.78123 C 314.83590,-228.78147 315.53864,-227.99491 316.37500,-227.34373 C 316.19499,-226.74811 316.00000,-226.15408 316.00000,-225.49998 C 316.00000,-221.91198 318.91200,-218.99998 322.50000,-218.99998 C 326.08800,-218.99998 329.00000,-221.91198 329.00000,-225.49998 C 329.00000,-227.86077 327.66567,-229.83017 325.78125,-230.96873 C 325.84384,-231.31596 326.00000,-231.63481 326.00000,-231.99998 C 326.00000,-235.31198 323.31200,-237.99998 320.00000,-237.99998 C 319.14702,-237.99998 318.32870,-237.82130 317.59375,-237.49998 C 316.73998,-240.09386 314.37851,-241.99997 311.50000,-241.99998 z " opacity="1.0000000" fill="url(#linearGradient13315)" fill-opacity="1.0000000" stroke="none" stroke-width="1.0000000" stroke-linecap="butt" stroke-linejoin="miter" stroke-miterlimit="2.0000000" stroke-dasharray="none" stroke-dashoffset="0.0000000" stroke-opacity="1.0000000"/>
        <path d="M 248.54804 -383.66660 A 6.7396116 6.7396116 0 1 1  235.06881,-383.66660 A 6.7396116 6.7396116 0 1 1  248.54804 -383.66660 z" transform="matrix(0.964447,0.000000,0.000000,0.964447,89.28852,144.5262)" opacity="1.0000000" fill="#888a85" fill-opacity="1.0000000" stroke="none" stroke-width="1.0000000" stroke-linecap="butt" stroke-linejoin="miter" stroke-miterlimit="2.0000000" stroke-dasharray="none" stroke-dashoffset="0.0000000" stroke-opacity="1.0000000"/>
        <g>
          <path transform="matrix(0.882630,0.000000,0.000000,0.882630,96.18078,108.1091)" d="M 250.18322 -389.30136 A 6.2313786 6.2313786 0 1 1  237.72046,-389.30136 A 6.2313786 6.2313786 0 1 1  250.18322 -389.30136 z" opacity="1.0000000" fill="#888a85" fill-opacity="1.0000000" stroke="none" stroke-width="1.0000000" stroke-linecap="butt" stroke-linejoin="miter" stroke-miterlimit="2.0000000" stroke-dasharray="none" stroke-dashoffset="0.0000000" stroke-opacity="1.0000000"/>
          <path transform="matrix(0.882630,0.000000,0.000000,0.882630,96.18078,108.1091)" d="M 250.18322 -389.30136 A 6.2313786 6.2313786 0 1 1  237.72046,-389.30136 A 6.2313786 6.2313786 0 1 1  250.18322 -389.30136 z" opacity="0.49444440" fill="url(#linearGradient13317)" fill-opacity="1.0000000" stroke="none" stroke-width="1.0000000" stroke-linecap="butt" stroke-linejoin="miter" stroke-miterlimit="2.0000000" stroke-dasharray="none" stroke-dashoffset="0.0000000" stroke-opacity="1.0000000"/>
        </g>
        <g>
          <path transform="matrix(0.911728,0.000000,0.000000,0.911728,90.45407,120.2336)" d="M 257.25429 -385.78790 A 6.0325046 6.0325046 0 1 1  245.18928,-385.78790 A 6.0325046 6.0325046 0 1 1  257.25429 -385.78790 z" opacity="1.0000000" fill="#888a85" fill-opacity="1.0000000" stroke="none" stroke-width="1.0000000" stroke-linecap="butt" stroke-linejoin="miter" stroke-miterlimit="2.0000000" stroke-dasharray="none" stroke-dashoffset="0.0000000" stroke-opacity="1.0000000"/>
          <path transform="matrix(0.911728,0.000000,0.000000,0.911728,90.45407,120.2336)" d="M 257.25429 -385.78790 A 6.0325046 6.0325046 0 1 1  245.18928,-385.78790 A 6.0325046 6.0325046 0 1 1  257.25429 -385.78790 z" opacity="0.49444440" fill="url(#linearGradient13319)" fill-opacity="1.0000000" stroke="none" stroke-width="1.0000000" stroke-linecap="butt" stroke-linejoin="miter" stroke-miterlimit="2.0000000" stroke-dasharray="none" stroke-dashoffset="0.0000000" stroke-opacity="1.0000000"/>
        </g>
        <g>
          <path transform="matrix(1.142799,0.000000,0.000000,1.142799,35.23229,210.2770)" d="M 237.80885 -387.88715 A 4.3752232 4.3752232 0 1 1  229.05840,-387.88715 A 4.3752232 4.3752232 0 1 1  237.80885 -387.88715 z" opacity="1.0000000" fill="#888a85" fill-opacity="1.0000000" stroke="none" stroke-width="1.0000000" stroke-linecap="butt" stroke-linejoin="miter" stroke-miterlimit="2.0000000" stroke-dasharray="none" stroke-dashoffset="0.0000000" stroke-opacity="1.0000000"/>
          <path transform="matrix(1.142799,0.000000,0.000000,1.142799,35.23229,210.2770)" d="M 237.80885 -387.88715 A 4.3752232 4.3752232 0 1 1  229.05840,-387.88715 A 4.3752232 4.3752232 0 1 1  237.80885 -387.88715 z" opacity="0.49444440" fill="url(#linearGradient13321)" fill-opacity="1.0000000" stroke="none" stroke-width="1.0000000" stroke-linecap="butt" stroke-linejoin="miter" stroke-miterlimit="2.0000000" stroke-dasharray="none" stroke-dashoffset="0.0000000" stroke-opacity="1.0000000"/>
        </g>
        <g>
          <path transform="matrix(1.038636,0.000000,0.000000,1.038636,59.84906,169.4899)" d="M 248.54804 -383.66660 A 6.7396116 6.7396116 0 1 1  235.06881,-383.66660 A 6.7396116 6.7396116 0 1 1  248.54804 -383.66660 z" opacity="1.0000000" fill="#888a85" fill-opacity="1.0000000" stroke="none" stroke-width="1.0000000" stroke-linecap="butt" stroke-linejoin="miter" stroke-miterlimit="2.0000000" stroke-dasharray="none" stroke-dashoffset="0.0000000" stroke-opacity="1.0000000"/>
          <path transform="matrix(1.038636,0.000000,0.000000,1.038636,59.84907,169.4899)" d="M 248.54804 -383.66660 A 6.7396116 6.7396116 0 1 1  235.06881,-383.66660 A 6.7396116 6.7396116 0 1 1  248.54804 -383.66660 z" opacity="0.49444440" fill="url(#linearGradient13323)" fill-opacity="1.0000000" stroke="none" stroke-width="1.0000000" stroke-linecap="butt" stroke-linejoin="miter" stroke-miterlimit="2.0000000" stroke-dasharray="none" stroke-dashoffset="0.0000000" stroke-opacity="1.0000000"/>
        </g>
      </g>
      <g transform="translate(72.00007,7.999930)">
        <path d="M 246.49993,-238.49993 C 244.22910,-238.49993 242.39002,-236.94965 241.78118,-234.87493 C 241.08795,-235.23876 240.33667,-235.49993 239.49993,-235.49993 C 236.73993,-235.49993 234.49992,-233.25994 234.49993,-230.49993 C 234.49993,-229.92100 234.66245,-229.39223 234.84368,-228.87493 C 233.47021,-228.10419 232.49993,-226.68593 232.49993,-224.99993 C 232.49993,-222.51593 234.51593,-220.49992 236.99993,-220.49993 C 237.17706,-220.49993 255.82280,-220.49993 255.99993,-220.49993 C 258.48392,-220.49993 260.49993,-222.51593 260.49993,-224.99993 C 260.49993,-226.68593 259.52965,-228.10419 258.15618,-228.87493 C 258.33742,-229.39222 258.49993,-229.92101 258.49993,-230.49993 C 258.49993,-233.25993 256.25993,-235.49992 253.49993,-235.49993 C 252.66319,-235.49993 251.91191,-235.23876 251.21868,-234.87493 C 250.60984,-236.94965 248.77076,-238.49993 246.49993,-238.49993 z " fill="#888a85" fill-opacity="1.0000000" stroke="#555753" stroke-width="1.0001625" stroke-linecap="butt" stroke-linejoin="miter" stroke-miterlimit="2.0000000" stroke-dasharray="none" stroke-dashoffset="0.0000000" stroke-opacity="1.0000000"/>
        <path d="M 246.49993,-237.99993 C 244.31021,-237.99993 242.77633,-236.66416 242.10438,-234.15641 C 241.43592,-234.50003 240.55679,-234.98976 239.74993,-234.98976 C 237.03342,-234.98976 234.99479,-233.05094 234.99480,-230.44422 C 234.99480,-229.89745 235.26201,-229.11078 235.43676,-228.62221 C 234.11233,-227.89426 232.99993,-226.73171 232.99993,-225.24966 C 232.99993,-222.90361 234.54610,-220.99957 237.33921,-220.99957 C 237.51002,-220.99957 255.48985,-220.99957 255.66065,-220.99957 C 258.43166,-220.99957 259.99993,-222.90361 259.99993,-225.24966 C 259.99993,-226.84203 258.88753,-227.91635 257.56310,-228.64430 C 257.73786,-229.13286 258.02717,-229.89746 258.02717,-230.44422 C 258.02717,-233.05093 255.91136,-235.01185 253.24994,-235.01186 C 252.44307,-235.01186 251.60813,-234.52212 250.93967,-234.17850 C 250.29082,-236.60004 248.68966,-237.99993 246.49993,-237.99993 z " opacity="1.0000000" fill="url(#linearGradient13325)" fill-opacity="1.0000000" stroke="none" stroke-width="0.99999958" stroke-linecap="butt" stroke-linejoin="miter" stroke-miterlimit="2.0000000" stroke-dasharray="none" stroke-dashoffset="0.0000000" stroke-opacity="1.0000000"/>
        <path d="M 291.68750 -437.59375 A 3.3125000 3.3125000 0 1 1  285.06250,-437.59375 A 3.3125000 3.3125000 0 1 1  291.68750 -437.59375 z" transform="matrix(1.056604,0.000000,0.000000,1.056604,-58.19825,228.8634)" opacity="1.0000000" fill="#888a85" fill-opacity="1.0000000" stroke="none" stroke-width="1.0000000" stroke-linecap="butt" stroke-linejoin="miter" stroke-miterlimit="2.0000000" stroke-dasharray="none" stroke-dashoffset="0.0000000" stroke-opacity="1.0000000"/>
        <path d="M 291.68750 -437.59375 A 3.3125000 3.3125000 0 1 1  285.06250,-437.59375 A 3.3125000 3.3125000 0 1 1  291.68750 -437.59375 z" transform="matrix(1.056604,0.000000,0.000000,1.056604,-58.19825,228.8634)" opacity="0.47777775" fill="url(#linearGradient13327)" fill-opacity="1.0000000" stroke="none" stroke-width="1.0000000" stroke-linecap="butt" stroke-linejoin="miter" stroke-miterlimit="2.0000000" stroke-dasharray="none" stroke-dashoffset="0.0000000" stroke-opacity="1.0000000"/>
        <rect width="20.000000" height="9.0000000" x="236.99994" y="-230.99992" opacity="1.0000000" fill="#888a85" fill-opacity="1.0000000" stroke="none" stroke-width="1.0000000" stroke-linecap="butt" stroke-linejoin="miter" stroke-miterlimit="2.0000000" stroke-dasharray="none" stroke-dashoffset="0.0000000" stroke-opacity="1.0000000"/>
        <path d="M 291.68750 -437.59375 A 3.3125000 3.3125000 0 1 1  285.06250,-437.59375 A 3.3125000 3.3125000 0 1 1  291.68750 -437.59375 z" transform="matrix(0.905660,0.000000,0.000000,0.905660,-24.16987,171.3114)" opacity="1.0000000" fill="#888a85" fill-opacity="1.0000000" stroke="none" stroke-width="1.0000000" stroke-linecap="butt" stroke-linejoin="miter" stroke-miterlimit="2.0000000" stroke-dasharray="none" stroke-dashoffset="0.0000000" stroke-opacity="1.0000000"/>
        <path d="M 291.68750 -437.59375 A 3.3125000 3.3125000 0 1 1  285.06250,-437.59375 A 3.3125000 3.3125000 0 1 1  291.68750 -437.59375 z" transform="matrix(1.056604,0.000000,0.000000,1.056604,-51.19818,231.8633)" opacity="1.0000000" fill="#888a85" fill-opacity="1.0000000" stroke="none" stroke-width="1.0000000" stroke-linecap="butt" stroke-linejoin="miter" stroke-miterlimit="2.0000000" stroke-dasharray="none" stroke-dashoffset="0.0000000" stroke-opacity="1.0000000"/>
        <path d="M 291.68750 -437.59375 A 3.3125000 3.3125000 0 1 1  285.06250,-437.59375 A 3.3125000 3.3125000 0 1 1  291.68750 -437.59375 z" transform="matrix(1.056604,0.000000,0.000000,1.056604,-51.19825,231.8634)" opacity="0.47777775" fill="url(#linearGradient13329)" fill-opacity="1.0000000" stroke="none" stroke-width="1.0000000" stroke-linecap="butt" stroke-linejoin="miter" stroke-miterlimit="2.0000000" stroke-dasharray="none" stroke-dashoffset="0.0000000" stroke-opacity="1.0000000"/>
        <path d="M 291.68750 -437.59375 A 3.3125000 3.3125000 0 1 1  285.06250,-437.59375 A 3.3125000 3.3125000 0 1 1  291.68750 -437.59375 z" transform="matrix(1.056604,0.000000,0.000000,1.056604,-65.19825,231.8634)" opacity="1.0000000" fill="#888a85" fill-opacity="1.0000000" stroke="none" stroke-width="1.0000000" stroke-linecap="butt" stroke-linejoin="miter" stroke-miterlimit="2.0000000" stroke-dasharray="none" stroke-dashoffset="0.0000000" stroke-opacity="1.0000000"/>
        <path d="M 291.68750 -437.59375 A 3.3125000 3.3125000 0 1 1  285.06250,-437.59375 A 3.3125000 3.3125000 0 1 1  291.68750 -437.59375 z" transform="matrix(1.056604,0.000000,0.000000,1.056604,-65.19825,231.8634)" opacity="0.47777775" fill="url(#linearGradient13331)" fill-opacity="1.0000000" stroke="none" stroke-width="1.0000000" stroke-linecap="butt" stroke-linejoin="miter" stroke-miterlimit="2.0000000" stroke-dasharray="none" stroke-dashoffset="0.0000000" stroke-opacity="1.0000000"/>
        <path d="M 245.46868,-233.96868 C 241.88930,-233.96868 238.99993,-231.04805 238.99993,-227.46868 C 238.99993,-225.09800 240.34936,-223.13089 242.24993,-221.99993 L 248.71868,-221.99993 C 250.61925,-223.13089 251.96868,-225.12924 251.96868,-227.49993 C 251.96868,-231.07931 249.04805,-233.96868 245.46868,-233.96868 z " opacity="1.0000000" fill="#888a85" fill-opacity="1.0000000" stroke="none" stroke-width="1.0000000" stroke-linecap="butt" stroke-linejoin="miter" stroke-miterlimit="2.0000000" stroke-dasharray="none" stroke-dashoffset="0.0000000" stroke-opacity="1.0000000"/>
        <path d="M 245.49993,-233.99993 C 241.91193,-233.99993 238.99993,-231.08792 238.99993,-227.49993 C 238.99993,-225.12353 240.34478,-223.13361 242.24993,-221.99993 L 248.74993,-221.99993 C 250.65508,-223.13361 251.99993,-225.12353 251.99993,-227.49993 C 251.99993,-231.08793 249.08793,-233.99992 245.49993,-233.99993 z " opacity="0.47777775" fill="url(#linearGradient13333)" fill-opacity="1.0000000" stroke="none" stroke-width="1.0000000" stroke-linecap="butt" stroke-linejoin="miter" stroke-miterlimit="2.0000000" stroke-dasharray="none" stroke-dashoffset="0.0000000" stroke-opacity="1.0000000"/>
        <path d="M 291.68750 -437.59375 A 3.3125000 3.3125000 0 1 1  285.06250,-437.59375 A 3.3125000 3.3125000 0 1 1  291.68750 -437.59375 z" transform="matrix(0.905660,0.000000,0.000000,0.905660,-24.16977,171.3113)" opacity="0.47777775" fill="url(#linearGradient13335)" fill-opacity="1.0000000" stroke="none" stroke-width="1.0000000" stroke-linecap="butt" stroke-linejoin="miter" stroke-miterlimit="2.0000000" stroke-dasharray="none" stroke-dashoffset="0.0000000" stroke-opacity="1.0000000"/>
        <path d="M 258.95633,-230.33389 C 258.95480,-227.64933 255.68707,-226.61994 255.68707,-226.61994 C 255.68707,-226.61994 258.03581,-228.24589 258.02392,-230.32495 C 258.02392,-230.32495 258.95633,-230.33389 258.95633,-230.33389 z " fill="#555753" fill-opacity="1.0000000" fill-rule="evenodd" stroke="none" stroke-width="1.0000000px" stroke-linecap="butt" stroke-linejoin="miter" stroke-opacity="1.0000000"/>
        <path d="M 291.68750 -437.59375 A 3.3125000 3.3125000 0 1 1  285.06250,-437.59375 A 3.3125000 3.3125000 0 1 1  291.68750 -437.59375 z" transform="matrix(1.207547,0.000000,0.000000,1.207547,-98.22652,302.4154)" opacity="1.0000000" fill="#888a85" fill-opacity="1.0000000" stroke="none" stroke-width="1.0000000" stroke-linecap="butt" stroke-linejoin="miter" stroke-miterlimit="2.0000000" stroke-dasharray="none" stroke-dashoffset="0.0000000" stroke-opacity="1.0000000"/>
        <path d="M 291.68750 -437.59375 A 3.3125000 3.3125000 0 1 1  285.06250,-437.59375 A 3.3125000 3.3125000 0 1 1  291.68750 -437.59375 z" transform="matrix(1.207547,0.000000,0.000000,1.207547,-98.22652,302.4154)" opacity="0.47777775" fill="url(#linearGradient13337)" fill-opacity="1.0000000" stroke="none" stroke-width="1.0000000" stroke-linecap="butt" stroke-linejoin="miter" stroke-miterlimit="2.0000000" stroke-dasharray="none" stroke-dashoffset="0.0000000" stroke-opacity="1.0000000"/>
      </g>
      <g transform="translate(56.98577,3.983930)">
        <path d="M 246.49993,-238.49993 C 244.22910,-238.49993 242.39002,-236.94965 241.78118,-234.87493 C 241.08795,-235.23876 240.33667,-235.49993 239.49993,-235.49993 C 236.73993,-235.49993 234.49992,-233.25994 234.49993,-230.49993 C 234.49993,-229.92100 234.66245,-229.39223 234.84368,-228.87493 C 233.47021,-228.10419 232.49993,-226.68593 232.49993,-224.99993 C 232.49993,-222.51593 234.51593,-220.49992 236.99993,-220.49993 C 237.17706,-220.49993 255.82280,-220.49993 255.99993,-220.49993 C 258.48392,-220.49993 260.49993,-222.51593 260.49993,-224.99993 C 260.49993,-226.68593 259.52965,-228.10419 258.15618,-228.87493 C 258.33742,-229.39222 258.49993,-229.92101 258.49993,-230.49993 C 258.49993,-233.25993 256.25993,-235.49992 253.49993,-235.49993 C 252.66319,-235.49993 251.91191,-235.23876 251.21868,-234.87493 C 250.60984,-236.94965 248.77076,-238.49993 246.49993,-238.49993 z " fill="#888a85" fill-opacity="1.0000000" stroke="#555753" stroke-width="1.0001625" stroke-linecap="butt" stroke-linejoin="miter" stroke-miterlimit="2.0000000" stroke-dasharray="none" stroke-dashoffset="0.0000000" stroke-opacity="1.0000000"/>
        <path d="M 246.49993,-237.99993 C 244.31021,-237.99993 242.77633,-236.66416 242.10438,-234.15641 C 241.43592,-234.50003 240.55679,-234.98976 239.74993,-234.98976 C 237.03342,-234.98976 234.99479,-233.05094 234.99480,-230.44422 C 234.99480,-229.89745 235.26201,-229.11078 235.43676,-228.62221 C 234.11233,-227.89426 232.99993,-226.73171 232.99993,-225.24966 C 232.99993,-222.90361 234.54610,-220.99957 237.33921,-220.99957 C 237.51002,-220.99957 255.48985,-220.99957 255.66065,-220.99957 C 258.43166,-220.99957 259.99993,-222.90361 259.99993,-225.24966 C 259.99993,-226.84203 258.88753,-227.91635 257.56310,-228.64430 C 257.73786,-229.13286 258.02717,-229.89746 258.02717,-230.44422 C 258.02717,-233.05093 255.91136,-235.01185 253.24994,-235.01186 C 252.44307,-235.01186 251.60813,-234.52212 250.93967,-234.17850 C 250.29082,-236.60004 248.68966,-237.99993 246.49993,-237.99993 z " opacity="1.0000000" fill="url(#linearGradient13339)" fill-opacity="1.0000000" stroke="none" stroke-width="0.99999958" stroke-linecap="butt" stroke-linejoin="miter" stroke-miterlimit="2.0000000" stroke-dasharray="none" stroke-dashoffset="0.0000000" stroke-opacity="1.0000000"/>
        <path d="M 291.68750 -437.59375 A 3.3125000 3.3125000 0 1 1  285.06250,-437.59375 A 3.3125000 3.3125000 0 1 1  291.68750 -437.59375 z" transform="matrix(1.056604,0.000000,0.000000,1.056604,-58.19825,228.8634)" opacity="1.0000000" fill="#888a85" fill-opacity="1.0000000" stroke="none" stroke-width="1.0000000" stroke-linecap="butt" stroke-linejoin="miter" stroke-miterlimit="2.0000000" stroke-dasharray="none" stroke-dashoffset="0.0000000" stroke-opacity="1.0000000"/>
        <path d="M 291.68750 -437.59375 A 3.3125000 3.3125000 0 1 1  285.06250,-437.59375 A 3.3125000 3.3125000 0 1 1  291.68750 -437.59375 z" transform="matrix(1.056604,0.000000,0.000000,1.056604,-58.19825,228.8634)" opacity="0.47777775" fill="url(#linearGradient13341)" fill-opacity="1.0000000" stroke="none" stroke-width="1.0000000" stroke-linecap="butt" stroke-linejoin="miter" stroke-miterlimit="2.0000000" stroke-dasharray="none" stroke-dashoffset="0.0000000" stroke-opacity="1.0000000"/>
        <rect width="20.000000" height="9.0000000" x="236.99994" y="-230.99992" opacity="1.0000000" fill="#888a85" fill-opacity="1.0000000" stroke="none" stroke-width="1.0000000" stroke-linecap="butt" stroke-linejoin="miter" stroke-miterlimit="2.0000000" stroke-dasharray="none" stroke-dashoffset="0.0000000" stroke-opacity="1.0000000"/>
        <path d="M 291.68750 -437.59375 A 3.3125000 3.3125000 0 1 1  285.06250,-437.59375 A 3.3125000 3.3125000 0 1 1  291.68750 -437.59375 z" transform="matrix(0.905660,0.000000,0.000000,0.905660,-24.16987,171.3114)" opacity="1.0000000" fill="#888a85" fill-opacity="1.0000000" stroke="none" stroke-width="1.0000000" stroke-linecap="butt" stroke-linejoin="miter" stroke-miterlimit="2.0000000" stroke-dasharray="none" stroke-dashoffset="0.0000000" stroke-opacity="1.0000000"/>
        <path d="M 291.68750 -437.59375 A 3.3125000 3.3125000 0 1 1  285.06250,-437.59375 A 3.3125000 3.3125000 0 1 1  291.68750 -437.59375 z" transform="matrix(1.056604,0.000000,0.000000,1.056604,-51.19818,231.8633)" opacity="1.0000000" fill="#888a85" fill-opacity="1.0000000" stroke="none" stroke-width="1.0000000" stroke-linecap="butt" stroke-linejoin="miter" stroke-miterlimit="2.0000000" stroke-dasharray="none" stroke-dashoffset="0.0000000" stroke-opacity="1.0000000"/>
        <path d="M 291.68750 -437.59375 A 3.3125000 3.3125000 0 1 1  285.06250,-437.59375 A 3.3125000 3.3125000 0 1 1  291.68750 -437.59375 z" transform="matrix(1.056604,0.000000,0.000000,1.056604,-51.19825,231.8634)" opacity="0.47777775" fill="url(#linearGradient13343)" fill-opacity="1.0000000" stroke="none" stroke-width="1.0000000" stroke-linecap="butt" stroke-linejoin="miter" stroke-miterlimit="2.0000000" stroke-dasharray="none" stroke-dashoffset="0.0000000" stroke-opacity="1.0000000"/>
        <path d="M 291.68750 -437.59375 A 3.3125000 3.3125000 0 1 1  285.06250,-437.59375 A 3.3125000 3.3125000 0 1 1  291.68750 -437.59375 z" transform="matrix(1.056604,0.000000,0.000000,1.056604,-65.19825,231.8634)" opacity="1.0000000" fill="#888a85" fill-opacity="1.0000000" stroke="none" stroke-width="1.0000000" stroke-linecap="butt" stroke-linejoin="miter" stroke-miterlimit="2.0000000" stroke-dasharray="none" stroke-dashoffset="0.0000000" stroke-opacity="1.0000000"/>
        <path d="M 291.68750 -437.59375 A 3.3125000 3.3125000 0 1 1  285.06250,-437.59375 A 3.3125000 3.3125000 0 1 1  291.68750 -437.59375 z" transform="matrix(1.056604,0.000000,0.000000,1.056604,-65.19825,231.8634)" opacity="0.47777775" fill="url(#linearGradient13345)" fill-opacity="1.0000000" stroke="none" stroke-width="1.0000000" stroke-linecap="butt" stroke-linejoin="miter" stroke-miterlimit="2.0000000" stroke-dasharray="none" stroke-dashoffset="0.0000000" stroke-opacity="1.0000000"/>
        <path d="M 245.46868,-233.96868 C 241.88930,-233.96868 238.99993,-231.04805 238.99993,-227.46868 C 238.99993,-225.09800 240.34936,-223.13089 242.24993,-221.99993 L 248.71868,-221.99993 C 250.61925,-223.13089 251.96868,-225.12924 251.96868,-227.49993 C 251.96868,-231.07931 249.04805,-233.96868 245.46868,-233.96868 z " opacity="1.0000000" fill="#888a85" fill-opacity="1.0000000" stroke="none" stroke-width="1.0000000" stroke-linecap="butt" stroke-linejoin="miter" stroke-miterlimit="2.0000000" stroke-dasharray="none" stroke-dashoffset="0.0000000" stroke-opacity="1.0000000"/>
        <path d="M 245.49993,-233.99993 C 241.91193,-233.99993 238.99993,-231.08792 238.99993,-227.49993 C 238.99993,-225.12353 240.34478,-223.13361 242.24993,-221.99993 L 248.74993,-221.99993 C 250.65508,-223.13361 251.99993,-225.12353 251.99993,-227.49993 C 251.99993,-231.08793 249.08793,-233.99992 245.49993,-233.99993 z " opacity="0.47777775" fill="url(#linearGradient13347)" fill-opacity="1.0000000" stroke="none" stroke-width="1.0000000" stroke-linecap="butt" stroke-linejoin="miter" stroke-miterlimit="2.0000000" stroke-dasharray="none" stroke-dashoffset="0.0000000" stroke-opacity="1.0000000"/>
        <path d="M 291.68750 -437.59375 A 3.3125000 3.3125000 0 1 1  285.06250,-437.59375 A 3.3125000 3.3125000 0 1 1  291.68750 -437.59375 z" transform="matrix(0.905660,0.000000,0.000000,0.905660,-24.16977,171.3113)" opacity="0.47777775" fill="url(#linearGradient13350)" fill-opacity="1.0000000" stroke="none" stroke-width="1.0000000" stroke-linecap="butt" stroke-linejoin="miter" stroke-miterlimit="2.0000000" stroke-dasharray="none" stroke-dashoffset="0.0000000" stroke-opacity="1.0000000"/>
        <path d="M 258.95633,-230.33389 C 258.95480,-227.64933 255.68707,-226.61994 255.68707,-226.61994 C 255.68707,-226.61994 258.03581,-228.24589 258.02392,-230.32495 C 258.02392,-230.32495 258.95633,-230.33389 258.95633,-230.33389 z " fill="#555753" fill-opacity="1.0000000" fill-rule="evenodd" stroke="none" stroke-width="1.0000000px" stroke-linecap="butt" stroke-linejoin="miter" stroke-opacity="1.0000000"/>
        <path d="M 291.68750 -437.59375 A 3.3125000 3.3125000 0 1 1  285.06250,-437.59375 A 3.3125000 3.3125000 0 1 1  291.68750 -437.59375 z" transform="matrix(1.207547,0.000000,0.000000,1.207547,-98.22652,302.4154)" opacity="1.0000000" fill="#888a85" fill-opacity="1.0000000" stroke="none" stroke-width="1.0000000" stroke-linecap="butt" stroke-linejoin="miter" stroke-miterlimit="2.0000000" stroke-dasharray="none" stroke-dashoffset="0.0000000" stroke-opacity="1.0000000"/>
        <path d="M 291.68750 -437.59375 A 3.3125000 3.3125000 0 1 1  285.06250,-437.59375 A 3.3125000 3.3125000 0 1 1  291.68750 -437.59375 z" transform="matrix(1.207547,0.000000,0.000000,1.207547,-98.22652,302.4154)" opacity="0.47777775" fill="url(#linearGradient13352)" fill-opacity="1.0000000" stroke="none" stroke-width="1.0000000" stroke-linecap="butt" stroke-linejoin="miter" stroke-miterlimit="2.0000000" stroke-dasharray="none" stroke-dashoffset="0.0000000" stroke-opacity="1.0000000"/>
      </g>
    </g>
  </g>
</svg>
