<?xml version="1.0" encoding="UTF-8" standalone="no"?>
<svg xmlns:dc="http://purl.org/dc/elements/1.1/" xmlns:cc="http://creativecommons.org/ns#" xmlns:rdf="http://www.w3.org/1999/02/22-rdf-syntax-ns#" xmlns:svg="http://www.w3.org/2000/svg" xmlns="http://www.w3.org/2000/svg" xmlns:xlink="http://www.w3.org/1999/xlink" width="48px" height="48px" id="svg1306">
  <defs id="defs1308">
    <linearGradient xlink:href="#linearGradient6538" id="linearGradient10630" gradientUnits="userSpaceOnUse" x1="284.80219" y1="-441.23294" x2="288.89954" y2="-436.83109"/>
    <linearGradient xlink:href="#linearGradient6549" id="linearGradient10628" gradientUnits="userSpaceOnUse" x1="286.66589" y1="-439.48358" x2="289.76562" y2="-436.70703"/>
    <linearGradient xlink:href="#linearGradient6527" id="linearGradient10626" gradientUnits="userSpaceOnUse" x1="275.94193" y1="-437.10501" x2="279.97546" y2="-431.91833"/>
    <linearGradient xlink:href="#linearGradient6538" id="linearGradient10624" gradientUnits="userSpaceOnUse" x1="285.94086" y1="-439.93900" x2="289.39124" y2="-436.44290"/>
    <linearGradient xlink:href="#linearGradient6513" id="linearGradient10622" gradientUnits="userSpaceOnUse" x1="286.51172" y1="-441.29074" x2="289.85379" y2="-436.14453"/>
    <linearGradient xlink:href="#linearGradient6497" id="linearGradient10620" gradientUnits="userSpaceOnUse" x1="287.51730" y1="-439.75281" x2="289.67633" y2="-436.32199"/>
    <linearGradient xlink:href="#linearGradient6470" id="linearGradient10618" gradientUnits="userSpaceOnUse" x1="271.02170" y1="-441.05182" x2="285.02859" y2="-431.96991"/>
    <linearGradient xlink:href="#linearGradient6538" id="linearGradient10616" gradientUnits="userSpaceOnUse" x1="284.80219" y1="-441.23294" x2="288.89954" y2="-436.83109"/>
    <linearGradient id="linearGradient6549">
      <stop offset="0" id="stop6551" stop-color="#ffffff" stop-opacity="1"/>
      <stop offset="1" id="stop6553" stop-color="#ffffff" stop-opacity="0"/>
    </linearGradient>
    <linearGradient xlink:href="#linearGradient6549" id="linearGradient10614" gradientUnits="userSpaceOnUse" x1="286.66589" y1="-439.48358" x2="289.76562" y2="-436.70703"/>
    <linearGradient id="linearGradient6527">
      <stop offset="0" id="stop6530" stop-color="#ffffff" stop-opacity="1"/>
      <stop offset="1" id="stop6532" stop-color="#ffffff" stop-opacity="0"/>
    </linearGradient>
    <linearGradient xlink:href="#linearGradient6527" id="linearGradient10612" gradientUnits="userSpaceOnUse" x1="275.94193" y1="-437.10501" x2="279.97546" y2="-431.91833"/>
    <linearGradient id="linearGradient6538">
      <stop offset="0" id="stop6540" stop-color="#ffffff" stop-opacity="1"/>
      <stop offset="1" id="stop6542" stop-color="#ffffff" stop-opacity="0"/>
    </linearGradient>
    <linearGradient xlink:href="#linearGradient6538" id="linearGradient10610" gradientUnits="userSpaceOnUse" x1="285.94086" y1="-439.93900" x2="289.39124" y2="-436.44290"/>
    <linearGradient id="linearGradient6513">
      <stop offset="0" id="stop6515" stop-color="#ffffff" stop-opacity="1"/>
      <stop offset="1" id="stop6517" stop-color="#ffffff" stop-opacity="0"/>
    </linearGradient>
    <linearGradient xlink:href="#linearGradient6513" id="linearGradient10608" gradientUnits="userSpaceOnUse" x1="286.51172" y1="-441.29074" x2="289.85379" y2="-436.14453"/>
    <linearGradient id="linearGradient6497">
      <stop offset="0" id="stop6499" stop-color="#ffffff" stop-opacity="1"/>
      <stop offset="1" id="stop6501" stop-color="#ffffff" stop-opacity="0"/>
    </linearGradient>
    <linearGradient xlink:href="#linearGradient6497" id="linearGradient10606" gradientUnits="userSpaceOnUse" x1="287.51730" y1="-439.75281" x2="289.67633" y2="-436.32199"/>
    <linearGradient id="linearGradient6470">
      <stop offset="0" id="stop6472" stop-color="#ffffff" stop-opacity="1"/>
      <stop offset="1" id="stop6474" stop-color="#ffffff" stop-opacity="0"/>
    </linearGradient>
    <linearGradient xlink:href="#linearGradient6470" id="linearGradient10604" gradientUnits="userSpaceOnUse" x1="271.02170" y1="-441.05182" x2="285.02859" y2="-431.96991"/>
    <linearGradient id="linearGradient7834">
      <stop offset="0" id="stop7836" stop-color="#ffffff" stop-opacity="1"/>
      <stop offset="1" id="stop7838" stop-color="#ffffff" stop-opacity="0"/>
    </linearGradient>
    <linearGradient xlink:href="#linearGradient7834" id="linearGradient10602" gradientUnits="userSpaceOnUse" x1="-156.29044" y1="-100.53421" x2="-153.09810" y2="-96.544556"/>
    <linearGradient id="linearGradient8397">
      <stop offset="0" id="stop8400" stop-color="#ffffff" stop-opacity="1"/>
      <stop offset="1" id="stop8402" stop-color="#ffffff" stop-opacity="0"/>
    </linearGradient>
    <linearGradient xlink:href="#linearGradient8397" id="linearGradient10600" gradientUnits="userSpaceOnUse" x1="238.00478" y1="-388.47476" x2="245.65462" y2="-382.64539"/>
    <linearGradient id="linearGradient8315">
      <stop offset="0" id="stop8317" stop-color="#ffffff" stop-opacity="1"/>
      <stop offset="1" id="stop8319" stop-color="#ffffff" stop-opacity="0"/>
    </linearGradient>
    <linearGradient xlink:href="#linearGradient8315" id="linearGradient10598" gradientUnits="userSpaceOnUse" x1="230.87598" y1="-390.43951" x2="235.25652" y2="-386.95901"/>
    <linearGradient id="linearGradient8381">
      <stop offset="0" id="stop8383" stop-color="#ffffff" stop-opacity="1"/>
      <stop offset="1" id="stop8385" stop-color="#ffffff" stop-opacity="0"/>
    </linearGradient>
    <linearGradient xlink:href="#linearGradient8381" id="linearGradient10596" gradientUnits="userSpaceOnUse" x1="246.74042" y1="-391.31381" x2="252.69785" y2="-385.35165"/>
    <linearGradient id="linearGradient8331">
      <stop offset="0" id="stop8333" stop-color="#ffffff" stop-opacity="1"/>
      <stop offset="1" id="stop8335" stop-color="#ffffff" stop-opacity="0"/>
    </linearGradient>
    <linearGradient xlink:href="#linearGradient8331" id="linearGradient10594" gradientUnits="userSpaceOnUse" x1="240.07379" y1="-393.40720" x2="245.82706" y2="-388.55029"/>
    <linearGradient id="linearGradient8302">
      <stop offset="0" id="stop8304" stop-color="#ffffff" stop-opacity="1"/>
      <stop offset="1" id="stop8306" stop-color="#ffffff" stop-opacity="0"/>
    </linearGradient>
    <linearGradient xlink:href="#linearGradient8302" id="linearGradient10592" gradientUnits="userSpaceOnUse" gradientTransform="translate(122.0230,102.0000)" x1="228.50261" y1="-392.30591" x2="278.91510" y2="-375.37952"/>
  </defs>
  
  <metadata id="metadata1311">
    <rdf:RDF>
      <cc:Work rdf:about="">
        <dc:format>image/svg+xml</dc:format>
        <dc:type rdf:resource="http://purl.org/dc/dcmitype/StillImage"/>
        <dc:title>weather-snow</dc:title>
        <dc:date>January 2006</dc:date>
        <dc:creator>
          <cc:Agent>
            <dc:title>Ryan Collier (pseudo)</dc:title>
          </cc:Agent>
        </dc:creator>
        <dc:publisher>
          <cc:Agent>
            <dc:title>http://www.tango-project.org</dc:title>
          </cc:Agent>
        </dc:publisher>
        <dc:source>http://www.pseudocode.org</dc:source>
        <dc:subject>
          <rdf:Bag>
            <rdf:li>weather</rdf:li>
            <rdf:li>applet</rdf:li>
            <rdf:li>notification</rdf:li>
          </rdf:Bag>
        </dc:subject>
        <cc:license rdf:resource="http://creativecommons.org/licenses/publicdomain/"/>
      </cc:Work>
      <cc:License rdf:about="http://creativecommons.org/licenses/publicdomain/">
        <cc:permits rdf:resource="http://creativecommons.org/ns#Reproduction"/>
        <cc:permits rdf:resource="http://creativecommons.org/ns#Distribution"/>
        <cc:permits rdf:resource="http://creativecommons.org/ns#DerivativeWorks"/>
      </cc:License>
    </rdf:RDF>
  </metadata>
  <g id="layer1">
    <g transform="translate(-340.0455,298.0001)">
      <path d="M 364.52300,-296.00000 C 361.75058,-296.00000 359.41477,-294.42629 358.11675,-292.18750 C 357.17239,-292.66254 356.15156,-293.00000 355.02300,-293.00000 C 351.15900,-293.00000 348.02300,-289.86400 348.02300,-286.00000 C 348.02300,-282.13600 351.15900,-279.00000 355.02300,-279.00000 C 357.44267,-279.00000 359.45309,-280.31932 360.71050,-282.18750 C 361.84470,-281.49788 363.09948,-281.00000 364.52300,-281.00000 C 365.43612,-281.00000 366.27595,-281.23202 367.08550,-281.53125 C 367.59544,-280.66352 368.26462,-279.95153 369.08550,-279.37500 C 369.07826,-279.24462 369.02300,-279.13218 369.02300,-279.00000 C 369.02300,-275.13600 372.15899,-272.00000 376.02300,-272.00000 C 379.88700,-272.00000 383.02300,-275.13600 383.02300,-279.00000 C 383.02300,-281.36969 381.76402,-283.35834 379.96050,-284.62500 C 379.96774,-284.75538 380.02300,-284.86782 380.02300,-285.00000 C 380.02300,-288.86400 376.88701,-292.00000 373.02300,-292.00000 C 372.40030,-292.00000 371.84781,-291.77781 371.27300,-291.62500 C 370.07847,-294.18384 367.53166,-296.00000 364.52300,-296.00000 z " opacity="1.0000000" fill="#888a85" fill-opacity="1.0000000" stroke="none" stroke-width="1.0000000" stroke-linecap="butt" stroke-linejoin="miter" stroke-miterlimit="2.0000000" stroke-dasharray="none" stroke-dashoffset="0.0000000" stroke-opacity="1.0000000"/>
      <path d="M 364.52300,-295.00000 C 361.74252,-295.00000 359.38849,-293.23815 358.46050,-290.78125 C 357.47508,-291.49069 356.32907,-292.00000 355.02300,-292.00000 C 351.71100,-292.00000 349.02300,-289.31200 349.02300,-286.00000 C 349.02300,-282.68800 351.71100,-280.00000 355.02300,-280.00000 C 357.45075,-280.00000 359.51624,-281.45558 360.46050,-283.53125 C 361.58126,-282.61369 362.96264,-282.00000 364.52300,-282.00000 C 365.59754,-282.00000 366.56728,-282.31896 367.46050,-282.78125 C 367.85890,-281.78149 368.56164,-280.99493 369.39800,-280.34375 C 369.21799,-279.74813 369.02300,-279.15410 369.02300,-278.50000 C 369.02300,-274.91200 371.93500,-272.00000 375.52300,-272.00000 C 379.11100,-272.00000 382.02300,-274.91200 382.02300,-278.50000 C 382.02300,-280.86079 380.68867,-282.83019 378.80425,-283.96875 C 378.86684,-284.31598 379.02300,-284.63483 379.02300,-285.00000 C 379.02300,-288.31200 376.33500,-291.00000 373.02300,-291.00000 C 372.17002,-291.00000 371.35170,-290.82132 370.61675,-290.50000 C 369.76298,-293.09388 367.40151,-294.99999 364.52300,-295.00000 z " opacity="1.0000000" fill="url(#linearGradient10592)" fill-opacity="1.0000000" stroke="none" stroke-width="1.0000000" stroke-linecap="butt" stroke-linejoin="miter" stroke-miterlimit="2.0000000" stroke-dasharray="none" stroke-dashoffset="0.0000000" stroke-opacity="1.0000000"/>
      <path transform="matrix(0.964447,0.000000,0.000000,0.964447,142.3115,91.52621)" d="M 248.54804 -383.66660 A 6.7396116 6.7396116 0 1 1  235.06881,-383.66660 A 6.7396116 6.7396116 0 1 1  248.54804 -383.66660 z" opacity="1.0000000" fill="#c4c5c2" fill-opacity="1.0000000" stroke="none" stroke-width="1.0000000" stroke-linecap="butt" stroke-linejoin="miter" stroke-miterlimit="2.0000000" stroke-dasharray="none" stroke-dashoffset="0.0000000" stroke-opacity="1.0000000"/>
      <g transform="translate(122.0230,102.0000)">
        <path d="M 250.18322 -389.30136 A 6.2313786 6.2313786 0 1 1  237.72046,-389.30136 A 6.2313786 6.2313786 0 1 1  250.18322 -389.30136 z" transform="matrix(0.882630,0.000000,0.000000,0.882630,27.18078,-46.89094)" opacity="1.0000000" fill="#c4c5c2" fill-opacity="1.0000000" stroke="none" stroke-width="1.0000000" stroke-linecap="butt" stroke-linejoin="miter" stroke-miterlimit="2.0000000" stroke-dasharray="none" stroke-dashoffset="0.0000000" stroke-opacity="1.0000000"/>
        <path d="M 250.18322 -389.30136 A 6.2313786 6.2313786 0 1 1  237.72046,-389.30136 A 6.2313786 6.2313786 0 1 1  250.18322 -389.30136 z" transform="matrix(0.882630,0.000000,0.000000,0.882630,27.18078,-46.89094)" opacity="1.0000000" fill="url(#linearGradient10594)" fill-opacity="1.0000000" stroke="none" stroke-width="1.0000000" stroke-linecap="butt" stroke-linejoin="miter" stroke-miterlimit="2.0000000" stroke-dasharray="none" stroke-dashoffset="0.0000000" stroke-opacity="1.0000000"/>
      </g>
      <g transform="translate(122.0230,102.0000)">
        <path d="M 257.25429 -385.78790 A 6.0325046 6.0325046 0 1 1  245.18928,-385.78790 A 6.0325046 6.0325046 0 1 1  257.25429 -385.78790 z" transform="matrix(0.911728,0.000000,0.000000,0.911728,21.45407,-34.76637)" opacity="1.0000000" fill="#c4c5c2" fill-opacity="1.0000000" stroke="none" stroke-width="1.0000000" stroke-linecap="butt" stroke-linejoin="miter" stroke-miterlimit="2.0000000" stroke-dasharray="none" stroke-dashoffset="0.0000000" stroke-opacity="1.0000000"/>
        <path d="M 257.25429 -385.78790 A 6.0325046 6.0325046 0 1 1  245.18928,-385.78790 A 6.0325046 6.0325046 0 1 1  257.25429 -385.78790 z" transform="matrix(0.911728,0.000000,0.000000,0.911728,21.45407,-34.76637)" opacity="1.0000000" fill="url(#linearGradient10596)" fill-opacity="1.0000000" stroke="none" stroke-width="1.0000000" stroke-linecap="butt" stroke-linejoin="miter" stroke-miterlimit="2.0000000" stroke-dasharray="none" stroke-dashoffset="0.0000000" stroke-opacity="1.0000000"/>
      </g>
      <g transform="translate(122.0230,102.0000)">
        <path d="M 237.80885 -387.88715 A 4.3752232 4.3752232 0 1 1  229.05840,-387.88715 A 4.3752232 4.3752232 0 1 1  237.80885 -387.88715 z" transform="matrix(1.142799,0.000000,0.000000,1.142799,-33.76771,55.27704)" opacity="1.0000000" fill="#c4c5c2" fill-opacity="1.0000000" stroke="none" stroke-width="1.0000000" stroke-linecap="butt" stroke-linejoin="miter" stroke-miterlimit="2.0000000" stroke-dasharray="none" stroke-dashoffset="0.0000000" stroke-opacity="1.0000000"/>
        <path d="M 237.80885 -387.88715 A 4.3752232 4.3752232 0 1 1  229.05840,-387.88715 A 4.3752232 4.3752232 0 1 1  237.80885 -387.88715 z" transform="matrix(1.142799,0.000000,0.000000,1.142799,-33.76771,55.27704)" opacity="1.0000000" fill="url(#linearGradient10598)" fill-opacity="1.0000000" stroke="none" stroke-width="1.0000000" stroke-linecap="butt" stroke-linejoin="miter" stroke-miterlimit="2.0000000" stroke-dasharray="none" stroke-dashoffset="0.0000000" stroke-opacity="1.0000000"/>
      </g>
      <g transform="translate(122.0230,102.0000)">
        <path d="M 248.54804 -383.66660 A 6.7396116 6.7396116 0 1 1  235.06881,-383.66660 A 6.7396116 6.7396116 0 1 1  248.54804 -383.66660 z" transform="matrix(1.038636,0.000000,0.000000,1.038636,-9.150940,14.48994)" opacity="1.0000000" fill="#c4c5c2" fill-opacity="1.0000000" stroke="none" stroke-width="1.0000000" stroke-linecap="butt" stroke-linejoin="miter" stroke-miterlimit="2.0000000" stroke-dasharray="none" stroke-dashoffset="0.0000000" stroke-opacity="1.0000000"/>
        <path d="M 248.54804 -383.66660 A 6.7396116 6.7396116 0 1 1  235.06881,-383.66660 A 6.7396116 6.7396116 0 1 1  248.54804 -383.66660 z" transform="matrix(1.038636,0.000000,0.000000,1.038636,-9.150933,14.48993)" opacity="1.0000000" fill="url(#linearGradient10600)" fill-opacity="1.0000000" stroke="none" stroke-width="1.0000000" stroke-linecap="butt" stroke-linejoin="miter" stroke-miterlimit="2.0000000" stroke-dasharray="none" stroke-dashoffset="0.0000000" stroke-opacity="1.0000000"/>
      </g>
      <g transform="matrix(0.935028,0.000000,0.000000,0.935028,499.8484,-187.6162)" stroke="none">
        <path d="M -151.93750 -96.937500 A 3.1250000 3.1250000 0 1 1  -158.18750,-96.937500 A 3.1250000 3.1250000 0 1 1  -151.93750 -96.937500 z" transform="matrix(1.737733,0.000000,0.000000,1.737733,110.8322,70.07649)" opacity="1.0000000" fill="#c4c5c2" fill-opacity="1.0000000" stroke="none" stroke-width="0.33115697" stroke-linecap="butt" stroke-linejoin="miter" stroke-miterlimit="0.0000000" stroke-dasharray="none" stroke-dashoffset="0.0000000" stroke-opacity="1.0000000"/>
        <path d="M -151.93750 -96.937500 A 3.1250000 3.1250000 0 1 1  -158.18750,-96.937500 A 3.1250000 3.1250000 0 1 1  -151.93750 -96.937500 z" transform="matrix(1.737733,0.000000,0.000000,1.737733,110.8948,70.01402)" opacity="1.0000000" fill="url(#linearGradient10602)" fill-opacity="1.0000000" stroke="none" stroke-width="0.45224530" stroke-linecap="butt" stroke-linejoin="miter" stroke-miterlimit="0.0000000" stroke-dasharray="none" stroke-dashoffset="0.0000000" stroke-opacity="1.0000000"/>
      </g>
      <g transform="translate(91.02300,162.0000)">
        <path d="M 280.50000,-445.50000 C 278.22917,-445.50000 276.39009,-443.94972 275.78125,-441.87500 C 275.08802,-442.23883 274.33674,-442.50000 273.50000,-442.50000 C 270.74000,-442.50000 268.49999,-440.26001 268.50000,-437.50000 C 268.50000,-436.92107 268.66252,-436.39230 268.84375,-435.87500 C 267.47028,-435.10426 266.50000,-433.68600 266.50000,-432.00000 C 266.50000,-429.51600 268.51600,-427.49999 271.00000,-427.50000 C 271.17713,-427.50000 289.82287,-427.50000 290.00000,-427.50000 C 292.48399,-427.50000 294.50000,-429.51600 294.50000,-432.00000 C 294.50000,-433.68600 293.52972,-435.10426 292.15625,-435.87500 C 292.33749,-436.39229 292.50000,-436.92108 292.50000,-437.50000 C 292.50000,-440.26000 290.26000,-442.49999 287.50000,-442.50000 C 286.66326,-442.50000 285.91198,-442.23883 285.21875,-441.87500 C 284.60991,-443.94972 282.77083,-445.50000 280.50000,-445.50000 z " fill="#c4c5c2" fill-opacity="1.0000000" stroke="#888a85" stroke-width="1.0000000" stroke-linecap="butt" stroke-linejoin="miter" stroke-miterlimit="2.0000000" stroke-dasharray="none" stroke-dashoffset="0.0000000" stroke-opacity="1.0000000"/>
        <path d="M 280.50000,-445.00000 C 278.31028,-445.00000 276.77640,-443.66423 276.10445,-441.15648 C 275.43599,-441.50010 274.55686,-441.98983 273.75000,-441.98983 C 271.03349,-441.98983 268.99486,-440.05101 268.99487,-437.44429 C 268.99487,-436.89752 269.26208,-436.11085 269.43683,-435.62228 C 268.11240,-434.89433 267.00000,-433.73178 267.00000,-432.24973 C 267.00000,-429.90368 268.54617,-427.99964 271.33928,-427.99964 C 271.51009,-427.99964 289.48992,-427.99964 289.66072,-427.99964 C 292.43173,-427.99964 294.00000,-429.90368 294.00000,-432.24973 C 294.00000,-433.84210 292.88760,-434.91642 291.56317,-435.64437 C 291.73793,-436.13293 292.02724,-436.89753 292.02724,-437.44429 C 292.02724,-440.05100 289.91143,-442.01192 287.25001,-442.01193 C 286.44314,-442.01193 285.60820,-441.52219 284.93974,-441.17857 C 284.29089,-443.60011 282.68973,-445.00000 280.50000,-445.00000 z " opacity="1.0000000" fill="url(#linearGradient10604)" fill-opacity="1.0000000" stroke="none" stroke-width="0.99999958" stroke-linecap="butt" stroke-linejoin="miter" stroke-miterlimit="2.0000000" stroke-dasharray="none" stroke-dashoffset="0.0000000" stroke-opacity="1.0000000"/>
        <g>
          <path transform="matrix(1.056604,0.000000,0.000000,1.056604,-24.19818,21.86331)" d="M 291.68750 -437.59375 A 3.3125000 3.3125000 0 1 1  285.06250,-437.59375 A 3.3125000 3.3125000 0 1 1  291.68750 -437.59375 z" opacity="1.0000000" fill="#c4c5c2" fill-opacity="1.0000000" stroke="none" stroke-width="1.0000000" stroke-linecap="butt" stroke-linejoin="miter" stroke-miterlimit="2.0000000" stroke-dasharray="none" stroke-dashoffset="0.0000000" stroke-opacity="1.0000000"/>
          <path transform="matrix(1.056604,0.000000,0.000000,1.056604,-24.19818,21.86331)" d="M 291.68750 -437.59375 A 3.3125000 3.3125000 0 1 1  285.06250,-437.59375 A 3.3125000 3.3125000 0 1 1  291.68750 -437.59375 z" opacity="1.0000000" fill="url(#linearGradient10606)" fill-opacity="1.0000000" stroke="none" stroke-width="1.0000000" stroke-linecap="butt" stroke-linejoin="miter" stroke-miterlimit="2.0000000" stroke-dasharray="none" stroke-dashoffset="0.0000000" stroke-opacity="1.0000000"/>
        </g>
        <rect width="20.000000" height="9.0000000" x="271.00000" y="-438.00000" opacity="1.0000000" fill="#c4c5c2" fill-opacity="1.0000000" stroke="none" stroke-width="1.0000000" stroke-linecap="butt" stroke-linejoin="miter" stroke-miterlimit="2.0000000" stroke-dasharray="none" stroke-dashoffset="0.0000000" stroke-opacity="1.0000000"/>
        <path d="M 291.68750 -437.59375 A 3.3125000 3.3125000 0 1 1  285.06250,-437.59375 A 3.3125000 3.3125000 0 1 1  291.68750 -437.59375 z" transform="matrix(0.905660,0.000000,0.000000,0.905660,9.830195,-35.68869)" opacity="1.0000000" fill="#c4c5c2" fill-opacity="1.0000000" stroke="none" stroke-width="1.0000000" stroke-linecap="butt" stroke-linejoin="miter" stroke-miterlimit="2.0000000" stroke-dasharray="none" stroke-dashoffset="0.0000000" stroke-opacity="1.0000000"/>
        <g>
          <path transform="matrix(1.056604,0.000000,0.000000,1.056604,-17.19811,24.86321)" d="M 291.68750 -437.59375 A 3.3125000 3.3125000 0 1 1  285.06250,-437.59375 A 3.3125000 3.3125000 0 1 1  291.68750 -437.59375 z" opacity="1.0000000" fill="#c4c5c2" fill-opacity="1.0000000" stroke="none" stroke-width="1.0000000" stroke-linecap="butt" stroke-linejoin="miter" stroke-miterlimit="2.0000000" stroke-dasharray="none" stroke-dashoffset="0.0000000" stroke-opacity="1.0000000"/>
          <path transform="matrix(1.056604,0.000000,0.000000,1.056604,-17.19818,24.86331)" d="M 291.68750 -437.59375 A 3.3125000 3.3125000 0 1 1  285.06250,-437.59375 A 3.3125000 3.3125000 0 1 1  291.68750 -437.59375 z" opacity="1.0000000" fill="url(#linearGradient10608)" fill-opacity="1.0000000" stroke="none" stroke-width="1.0000000" stroke-linecap="butt" stroke-linejoin="miter" stroke-miterlimit="2.0000000" stroke-dasharray="none" stroke-dashoffset="0.0000000" stroke-opacity="1.0000000"/>
        </g>
        <g>
          <path transform="matrix(1.056604,0.000000,0.000000,1.056604,-31.19818,24.86331)" d="M 291.68750 -437.59375 A 3.3125000 3.3125000 0 1 1  285.06250,-437.59375 A 3.3125000 3.3125000 0 1 1  291.68750 -437.59375 z" opacity="1.0000000" fill="#c4c5c2" fill-opacity="1.0000000" stroke="none" stroke-width="1.0000000" stroke-linecap="butt" stroke-linejoin="miter" stroke-miterlimit="2.0000000" stroke-dasharray="none" stroke-dashoffset="0.0000000" stroke-opacity="1.0000000"/>
          <path transform="matrix(1.056604,0.000000,0.000000,1.056604,-31.19818,24.86331)" d="M 291.68750 -437.59375 A 3.3125000 3.3125000 0 1 1  285.06250,-437.59375 A 3.3125000 3.3125000 0 1 1  291.68750 -437.59375 z" opacity="1.0000000" fill="url(#linearGradient10610)" fill-opacity="1.0000000" stroke="none" stroke-width="1.0000000" stroke-linecap="butt" stroke-linejoin="miter" stroke-miterlimit="2.0000000" stroke-dasharray="none" stroke-dashoffset="0.0000000" stroke-opacity="1.0000000"/>
        </g>
        <g transform="translate(-1.000000,0.000000)">
          <path d="M 280.46875,-440.96875 C 276.88937,-440.96875 274.00000,-438.04812 274.00000,-434.46875 C 274.00000,-432.09807 275.34943,-430.13096 277.25000,-429.00000 L 283.71875,-429.00000 C 285.61932,-430.13096 286.96875,-432.12931 286.96875,-434.50000 C 286.96875,-438.07938 284.04812,-440.96875 280.46875,-440.96875 z " opacity="1.0000000" fill="#c4c5c2" fill-opacity="1.0000000" stroke="none" stroke-width="1.0000000" stroke-linecap="butt" stroke-linejoin="miter" stroke-miterlimit="2.0000000" stroke-dasharray="none" stroke-dashoffset="0.0000000" stroke-opacity="1.0000000"/>
          <path d="M 280.50000,-441.00000 C 276.91200,-441.00000 274.00000,-438.08799 274.00000,-434.50000 C 274.00000,-432.12360 275.34485,-430.13368 277.25000,-429.00000 L 283.75000,-429.00000 C 285.65515,-430.13368 287.00000,-432.12360 287.00000,-434.50000 C 287.00000,-438.08800 284.08800,-440.99999 280.50000,-441.00000 z " opacity="1.0000000" fill="url(#linearGradient10612)" fill-opacity="1.0000000" stroke="none" stroke-width="1.0000000" stroke-linecap="butt" stroke-linejoin="miter" stroke-miterlimit="2.0000000" stroke-dasharray="none" stroke-dashoffset="0.0000000" stroke-opacity="1.0000000"/>
        </g>
        <path d="M 291.68750 -437.59375 A 3.3125000 3.3125000 0 1 1  285.06250,-437.59375 A 3.3125000 3.3125000 0 1 1  291.68750 -437.59375 z" transform="matrix(0.905660,0.000000,0.000000,0.905660,9.830296,-35.68884)" opacity="1.0000000" fill="url(#linearGradient10614)" fill-opacity="1.0000000" stroke="none" stroke-width="1.0000000" stroke-linecap="butt" stroke-linejoin="miter" stroke-miterlimit="2.0000000" stroke-dasharray="none" stroke-dashoffset="0.0000000" stroke-opacity="1.0000000"/>
        <path d="M 292.95640,-437.33396 C 292.95487,-434.64940 289.68714,-433.62001 289.68714,-433.62001 C 289.68714,-433.62001 292.03588,-435.24596 292.02399,-437.32502 C 292.02399,-437.32502 292.95640,-437.33396 292.95640,-437.33396 z " fill="#888a85" fill-opacity="1.0000000" fill-rule="evenodd" stroke="none" stroke-width="1.0000000px" stroke-linecap="butt" stroke-linejoin="miter" stroke-opacity="1.0000000"/>
        <g transform="matrix(1.142857,0.000000,0.000000,1.142857,-28.57139,67.00008)">
          <path transform="matrix(1.056604,0.000000,0.000000,1.056604,-31.19818,24.86331)" d="M 291.68750 -437.59375 A 3.3125000 3.3125000 0 1 1  285.06250,-437.59375 A 3.3125000 3.3125000 0 1 1  291.68750 -437.59375 z" opacity="1.0000000" fill="#c4c5c2" fill-opacity="1.0000000" stroke="none" stroke-width="1.0000000" stroke-linecap="butt" stroke-linejoin="miter" stroke-miterlimit="2.0000000" stroke-dasharray="none" stroke-dashoffset="0.0000000" stroke-opacity="1.0000000"/>
          <path transform="matrix(1.056604,0.000000,0.000000,1.056604,-31.19818,24.86331)" d="M 291.68750 -437.59375 A 3.3125000 3.3125000 0 1 1  285.06250,-437.59375 A 3.3125000 3.3125000 0 1 1  291.68750 -437.59375 z" opacity="1.0000000" fill="url(#linearGradient10616)" fill-opacity="1.0000000" stroke="none" stroke-width="1.0000000" stroke-linecap="butt" stroke-linejoin="miter" stroke-miterlimit="2.0000000" stroke-dasharray="none" stroke-dashoffset="0.0000000" stroke-opacity="1.0000000"/>
        </g>
      </g>
      <g transform="translate(76.02041,158.0000)">
        <path d="M 280.50000,-445.50000 C 278.22917,-445.50000 276.39009,-443.94972 275.78125,-441.87500 C 275.08802,-442.23883 274.33674,-442.50000 273.50000,-442.50000 C 270.74000,-442.50000 268.49999,-440.26001 268.50000,-437.50000 C 268.50000,-436.92107 268.66252,-436.39230 268.84375,-435.87500 C 267.47028,-435.10426 266.50000,-433.68600 266.50000,-432.00000 C 266.50000,-429.51600 268.51600,-427.49999 271.00000,-427.50000 C 271.17713,-427.50000 289.82287,-427.50000 290.00000,-427.50000 C 292.48399,-427.50000 294.50000,-429.51600 294.50000,-432.00000 C 294.50000,-433.68600 293.52972,-435.10426 292.15625,-435.87500 C 292.33749,-436.39229 292.50000,-436.92108 292.50000,-437.50000 C 292.50000,-440.26000 290.26000,-442.49999 287.50000,-442.50000 C 286.66326,-442.50000 285.91198,-442.23883 285.21875,-441.87500 C 284.60991,-443.94972 282.77083,-445.50000 280.50000,-445.50000 z " fill="#c4c5c2" fill-opacity="1.0000000" stroke="#888a85" stroke-width="1.0000000" stroke-linecap="butt" stroke-linejoin="miter" stroke-miterlimit="2.0000000" stroke-dasharray="none" stroke-dashoffset="0.0000000" stroke-opacity="1.0000000"/>
        <path d="M 280.50000,-445.00000 C 278.31028,-445.00000 276.77640,-443.66423 276.10445,-441.15648 C 275.43599,-441.50010 274.55686,-441.98983 273.75000,-441.98983 C 271.03349,-441.98983 268.99486,-440.05101 268.99487,-437.44429 C 268.99487,-436.89752 269.26208,-436.11085 269.43683,-435.62228 C 268.11240,-434.89433 267.00000,-433.73178 267.00000,-432.24973 C 267.00000,-429.90368 268.54617,-427.99964 271.33928,-427.99964 C 271.51009,-427.99964 289.48992,-427.99964 289.66072,-427.99964 C 292.43173,-427.99964 294.00000,-429.90368 294.00000,-432.24973 C 294.00000,-433.84210 292.88760,-434.91642 291.56317,-435.64437 C 291.73793,-436.13293 292.02724,-436.89753 292.02724,-437.44429 C 292.02724,-440.05100 289.91143,-442.01192 287.25001,-442.01193 C 286.44314,-442.01193 285.60820,-441.52219 284.93974,-441.17857 C 284.29089,-443.60011 282.68973,-445.00000 280.50000,-445.00000 z " opacity="1.0000000" fill="url(#linearGradient10618)" fill-opacity="1.0000000" stroke="none" stroke-width="0.99999958" stroke-linecap="butt" stroke-linejoin="miter" stroke-miterlimit="2.0000000" stroke-dasharray="none" stroke-dashoffset="0.0000000" stroke-opacity="1.0000000"/>
        <g>
          <path transform="matrix(1.056604,0.000000,0.000000,1.056604,-24.19818,21.86331)" d="M 291.68750 -437.59375 A 3.3125000 3.3125000 0 1 1  285.06250,-437.59375 A 3.3125000 3.3125000 0 1 1  291.68750 -437.59375 z" opacity="1.0000000" fill="#c4c5c2" fill-opacity="1.0000000" stroke="none" stroke-width="1.0000000" stroke-linecap="butt" stroke-linejoin="miter" stroke-miterlimit="2.0000000" stroke-dasharray="none" stroke-dashoffset="0.0000000" stroke-opacity="1.0000000"/>
          <path transform="matrix(1.056604,0.000000,0.000000,1.056604,-24.19818,21.86331)" d="M 291.68750 -437.59375 A 3.3125000 3.3125000 0 1 1  285.06250,-437.59375 A 3.3125000 3.3125000 0 1 1  291.68750 -437.59375 z" opacity="1.0000000" fill="url(#linearGradient10620)" fill-opacity="1.0000000" stroke="none" stroke-width="1.0000000" stroke-linecap="butt" stroke-linejoin="miter" stroke-miterlimit="2.0000000" stroke-dasharray="none" stroke-dashoffset="0.0000000" stroke-opacity="1.0000000"/>
        </g>
        <rect width="20.000000" height="9.0000000" x="271.00000" y="-438.00000" opacity="1.0000000" fill="#c4c5c2" fill-opacity="1.0000000" stroke="none" stroke-width="1.0000000" stroke-linecap="butt" stroke-linejoin="miter" stroke-miterlimit="2.0000000" stroke-dasharray="none" stroke-dashoffset="0.0000000" stroke-opacity="1.0000000"/>
        <path d="M 291.68750 -437.59375 A 3.3125000 3.3125000 0 1 1  285.06250,-437.59375 A 3.3125000 3.3125000 0 1 1  291.68750 -437.59375 z" transform="matrix(0.905660,0.000000,0.000000,0.905660,9.830195,-35.68869)" opacity="1.0000000" fill="#c4c5c2" fill-opacity="1.0000000" stroke="none" stroke-width="1.0000000" stroke-linecap="butt" stroke-linejoin="miter" stroke-miterlimit="2.0000000" stroke-dasharray="none" stroke-dashoffset="0.0000000" stroke-opacity="1.0000000"/>
        <g>
          <path transform="matrix(1.056604,0.000000,0.000000,1.056604,-17.19811,24.86321)" d="M 291.68750 -437.59375 A 3.3125000 3.3125000 0 1 1  285.06250,-437.59375 A 3.3125000 3.3125000 0 1 1  291.68750 -437.59375 z" opacity="1.0000000" fill="#c4c5c2" fill-opacity="1.0000000" stroke="none" stroke-width="1.0000000" stroke-linecap="butt" stroke-linejoin="miter" stroke-miterlimit="2.0000000" stroke-dasharray="none" stroke-dashoffset="0.0000000" stroke-opacity="1.0000000"/>
          <path transform="matrix(1.056604,0.000000,0.000000,1.056604,-17.19818,24.86331)" d="M 291.68750 -437.59375 A 3.3125000 3.3125000 0 1 1  285.06250,-437.59375 A 3.3125000 3.3125000 0 1 1  291.68750 -437.59375 z" opacity="1.0000000" fill="url(#linearGradient10622)" fill-opacity="1.0000000" stroke="none" stroke-width="1.0000000" stroke-linecap="butt" stroke-linejoin="miter" stroke-miterlimit="2.0000000" stroke-dasharray="none" stroke-dashoffset="0.0000000" stroke-opacity="1.0000000"/>
        </g>
        <g>
          <path transform="matrix(1.056604,0.000000,0.000000,1.056604,-31.19818,24.86331)" d="M 291.68750 -437.59375 A 3.3125000 3.3125000 0 1 1  285.06250,-437.59375 A 3.3125000 3.3125000 0 1 1  291.68750 -437.59375 z" opacity="1.0000000" fill="#c4c5c2" fill-opacity="1.0000000" stroke="none" stroke-width="1.0000000" stroke-linecap="butt" stroke-linejoin="miter" stroke-miterlimit="2.0000000" stroke-dasharray="none" stroke-dashoffset="0.0000000" stroke-opacity="1.0000000"/>
          <path transform="matrix(1.056604,0.000000,0.000000,1.056604,-31.19818,24.86331)" d="M 291.68750 -437.59375 A 3.3125000 3.3125000 0 1 1  285.06250,-437.59375 A 3.3125000 3.3125000 0 1 1  291.68750 -437.59375 z" opacity="1.0000000" fill="url(#linearGradient10624)" fill-opacity="1.0000000" stroke="none" stroke-width="1.0000000" stroke-linecap="butt" stroke-linejoin="miter" stroke-miterlimit="2.0000000" stroke-dasharray="none" stroke-dashoffset="0.0000000" stroke-opacity="1.0000000"/>
        </g>
        <g transform="translate(-1.000000,0.000000)">
          <path d="M 280.46875,-440.96875 C 276.88937,-440.96875 274.00000,-438.04812 274.00000,-434.46875 C 274.00000,-432.09807 275.34943,-430.13096 277.25000,-429.00000 L 283.71875,-429.00000 C 285.61932,-430.13096 286.96875,-432.12931 286.96875,-434.50000 C 286.96875,-438.07938 284.04812,-440.96875 280.46875,-440.96875 z " opacity="1.0000000" fill="#c4c5c2" fill-opacity="1.0000000" stroke="none" stroke-width="1.0000000" stroke-linecap="butt" stroke-linejoin="miter" stroke-miterlimit="2.0000000" stroke-dasharray="none" stroke-dashoffset="0.0000000" stroke-opacity="1.0000000"/>
          <path d="M 280.50000,-441.00000 C 276.91200,-441.00000 274.00000,-438.08799 274.00000,-434.50000 C 274.00000,-432.12360 275.34485,-430.13368 277.25000,-429.00000 L 283.75000,-429.00000 C 285.65515,-430.13368 287.00000,-432.12360 287.00000,-434.50000 C 287.00000,-438.08800 284.08800,-440.99999 280.50000,-441.00000 z " opacity="1.0000000" fill="url(#linearGradient10626)" fill-opacity="1.0000000" stroke="none" stroke-width="1.0000000" stroke-linecap="butt" stroke-linejoin="miter" stroke-miterlimit="2.0000000" stroke-dasharray="none" stroke-dashoffset="0.0000000" stroke-opacity="1.0000000"/>
        </g>
        <path d="M 291.68750 -437.59375 A 3.3125000 3.3125000 0 1 1  285.06250,-437.59375 A 3.3125000 3.3125000 0 1 1  291.68750 -437.59375 z" transform="matrix(0.905660,0.000000,0.000000,0.905660,9.830296,-35.68884)" opacity="1.0000000" fill="url(#linearGradient10628)" fill-opacity="1.0000000" stroke="none" stroke-width="1.0000000" stroke-linecap="butt" stroke-linejoin="miter" stroke-miterlimit="2.0000000" stroke-dasharray="none" stroke-dashoffset="0.0000000" stroke-opacity="1.0000000"/>
        <path d="M 292.95640,-437.33396 C 292.95487,-434.64940 289.68714,-433.62001 289.68714,-433.62001 C 289.68714,-433.62001 292.03588,-435.24596 292.02399,-437.32502 C 292.02399,-437.32502 292.95640,-437.33396 292.95640,-437.33396 z " fill="#888a85" fill-opacity="1.0000000" fill-rule="evenodd" stroke="none" stroke-width="1.0000000px" stroke-linecap="butt" stroke-linejoin="miter" stroke-opacity="1.0000000"/>
        <g transform="matrix(1.142857,0.000000,0.000000,1.142857,-28.57139,67.00008)">
          <path transform="matrix(1.056604,0.000000,0.000000,1.056604,-31.19818,24.86331)" d="M 291.68750 -437.59375 A 3.3125000 3.3125000 0 1 1  285.06250,-437.59375 A 3.3125000 3.3125000 0 1 1  291.68750 -437.59375 z" opacity="1.0000000" fill="#c4c5c2" fill-opacity="1.0000000" stroke="none" stroke-width="1.0000000" stroke-linecap="butt" stroke-linejoin="miter" stroke-miterlimit="2.0000000" stroke-dasharray="none" stroke-dashoffset="0.0000000" stroke-opacity="1.0000000"/>
          <path transform="matrix(1.056604,0.000000,0.000000,1.056604,-31.19818,24.86331)" d="M 291.68750 -437.59375 A 3.3125000 3.3125000 0 1 1  285.06250,-437.59375 A 3.3125000 3.3125000 0 1 1  291.68750 -437.59375 z" opacity="1.0000000" fill="url(#linearGradient10630)" fill-opacity="1.0000000" stroke="none" stroke-width="1.0000000" stroke-linecap="butt" stroke-linejoin="miter" stroke-miterlimit="2.0000000" stroke-dasharray="none" stroke-dashoffset="0.0000000" stroke-opacity="1.0000000"/>
        </g>
      </g>
    </g>
    <g transform="translate(-163.0077,222.0147)">
      <path transform="matrix(0.685520,0.000000,0.000000,0.685520,151.7017,27.15827)" d="M 31.819805 -316.77872 A 2.2097087 2.2097087 0 1 1  27.400387,-316.77872 A 2.2097087 2.2097087 0 1 1  31.819805 -316.77872 z" opacity="1.0000000" fill="#ffffff" fill-opacity="1.0000000" stroke="#729fcf" stroke-width="1.4587468" stroke-linecap="butt" stroke-linejoin="miter" stroke-miterlimit="0.0000000" stroke-dasharray="none" stroke-dashoffset="0.0000000" stroke-opacity="1.0000000"/>
      <path transform="matrix(0.915572,0.000000,0.000000,0.915587,152.4091,103.5577)" d="M 31.819805 -316.77872 A 2.2097087 2.2097087 0 1 1  27.400387,-316.77872 A 2.2097087 2.2097087 0 1 1  31.819805 -316.77872 z" opacity="1.0000000" fill="#ffffff" fill-opacity="1.0000000" stroke="#729fcf" stroke-width="1.0922043" stroke-linecap="butt" stroke-linejoin="miter" stroke-miterlimit="0.0000000" stroke-dasharray="none" stroke-dashoffset="0.0000000" stroke-opacity="1.0000000"/>
      <path transform="matrix(0.672406,0.000000,0.000000,0.683742,153.0708,34.62149)" d="M 31.819805 -316.77872 A 2.2097087 2.2097087 0 1 1  27.400387,-316.77872 A 2.2097087 2.2097087 0 1 1  31.819805 -316.77872 z" opacity="1.0000000" fill="#ffffff" fill-opacity="1.0000000" stroke="#729fcf" stroke-width="1.4748161" stroke-linecap="butt" stroke-linejoin="miter" stroke-miterlimit="0.0000000" stroke-dasharray="none" stroke-dashoffset="0.0000000" stroke-opacity="1.0000000"/>
      <path transform="matrix(0.682300,0.000000,0.000000,0.680269,181.7970,30.49471)" d="M 31.819805 -316.77872 A 2.2097087 2.2097087 0 1 1  27.400387,-316.77872 A 2.2097087 2.2097087 0 1 1  31.819805 -316.77872 z" opacity="1.0000000" fill="#ffffff" fill-opacity="1.0000000" stroke="#729fcf" stroke-width="1.4678179" stroke-linecap="butt" stroke-linejoin="miter" stroke-miterlimit="0.0000000" stroke-dasharray="none" stroke-dashoffset="0.0000000" stroke-opacity="1.0000000"/>
      <path transform="matrix(1.107132,0.000000,0.000000,1.117168,157.2177,164.9217)" d="M 31.819805 -316.77872 A 2.2097087 2.2097087 0 1 1  27.400387,-316.77872 A 2.2097087 2.2097087 0 1 1  31.819805 -316.77872 z" opacity="1.0000000" fill="#ffffff" fill-opacity="1.0000000" stroke="#729fcf" stroke-width="0.89916825" stroke-linecap="butt" stroke-linejoin="miter" stroke-miterlimit="0.0000000" stroke-dasharray="none" stroke-dashoffset="0.0000000" stroke-opacity="1.0000000"/>
      <path transform="matrix(1.127592,0.000000,0.000000,1.051830,161.6119,151.3731)" d="M 31.819805 -316.77872 A 2.2097087 2.2097087 0 1 1  27.400387,-316.77872 A 2.2097087 2.2097087 0 1 1  31.819805 -316.77872 z" opacity="1.0000000" fill="#ffffff" fill-opacity="1.0000000" stroke="#729fcf" stroke-width="0.91822928" stroke-linecap="butt" stroke-linejoin="miter" stroke-miterlimit="0.0000000" stroke-dasharray="none" stroke-dashoffset="0.0000000" stroke-opacity="1.0000000"/>
      <path transform="matrix(0.685519,0.000000,0.000000,0.680487,164.6869,34.56369)" d="M 31.819805 -316.77872 A 2.2097087 2.2097087 0 1 1  27.400387,-316.77872 A 2.2097087 2.2097087 0 1 1  31.819805 -316.77872 z" opacity="1.0000000" fill="#ffffff" fill-opacity="1.0000000" stroke="#729fcf" stroke-width="1.4641328" stroke-linecap="butt" stroke-linejoin="miter" stroke-miterlimit="0.0000000" stroke-dasharray="none" stroke-dashoffset="0.0000000" stroke-opacity="1.0000000"/>
    </g>
  </g>
</svg>
