<?xml version="1.0" encoding="UTF-8" standalone="no"?>
<svg xmlns:dc="http://purl.org/dc/elements/1.1/" xmlns:cc="http://creativecommons.org/ns#" xmlns:rdf="http://www.w3.org/1999/02/22-rdf-syntax-ns#" xmlns:svg="http://www.w3.org/2000/svg" xmlns="http://www.w3.org/2000/svg" xmlns:xlink="http://www.w3.org/1999/xlink" width="48" height="48" id="svg6619" version="1.0">
  <defs id="defs6621">
    <linearGradient id="linearGradient7440">
      <stop offset="0" id="stop7442" stop-color="#eeeeec" stop-opacity="1"/>
      <stop offset="1" id="stop7444" stop-color="#eeeeec" stop-opacity="0"/>
    </linearGradient>
    <linearGradient id="linearGradient7430">
      <stop offset="0" id="stop7432" stop-color="#eeeeec" stop-opacity="1"/>
      <stop offset="1" id="stop7434" stop-color="#eeeeec" stop-opacity="0"/>
    </linearGradient>
    <linearGradient id="linearGradient7392">
      <stop offset="0" id="stop7394" stop-color="#ffffff" stop-opacity="1"/>
      <stop offset="1" id="stop7396" stop-color="#ffffff" stop-opacity="0"/>
    </linearGradient>
    <linearGradient id="linearGradient7380">
      <stop offset="0" id="stop7382" stop-color="#cedeef" stop-opacity="1"/>
      <stop offset="1" id="stop7384" stop-color="#cedeef" stop-opacity="0"/>
    </linearGradient>
    <linearGradient xlink:href="#linearGradient7380" id="linearGradient7386" x1="18.165867" y1="9.2548895" x2="20.711481" y2="21.572344" gradientUnits="userSpaceOnUse"/>
    <radialGradient xlink:href="#linearGradient7392" id="radialGradient7398" cx="17.700384" cy="13.797695" fx="17.700384" fy="13.797695" r="1.4135723" gradientTransform="matrix(1,0,0,1.0652174,6.1248392e-7,-0.8998502)" gradientUnits="userSpaceOnUse"/>
    <radialGradient xlink:href="#linearGradient7392" id="radialGradient7402" gradientUnits="userSpaceOnUse" gradientTransform="matrix(1,0,0,1.0652174,6.1248392e-7,-0.8998502)" cx="17.700384" cy="13.797695" fx="17.700384" fy="13.797695" r="1.4135723"/>
    <radialGradient xlink:href="#linearGradient7430" id="radialGradient7438" cx="10.693982" cy="16.471191" fx="10.693982" fy="16.471191" r="0.553137" gradientTransform="matrix(2.1647007,0,0,0.8888889,-12.455288,1.8301322)" gradientUnits="userSpaceOnUse"/>
    <radialGradient xlink:href="#linearGradient7440" id="radialGradient7448" cx="10.693982" cy="16.471191" fx="10.693982" fy="16.471191" r="0.553137" gradientTransform="matrix(2.2783611,0,0,0.8888889,-13.670771,1.8301322)" gradientUnits="userSpaceOnUse"/>
  </defs>
  
  <metadata id="metadata6624">
    <rdf:RDF>
      <cc:Work rdf:about="">
        <dc:format>image/svg+xml</dc:format>
        <dc:type rdf:resource="http://purl.org/dc/dcmitype/StillImage"/>
      </cc:Work>
    </rdf:RDF>
  </metadata>
  <g id="layer1">
    <g>
      <path d="M 24 10.375 C 11.701921 10.375 1.71875 12.767211 1.71875 15.71875 C 1.71875 17.498261 5.3609075 19.059125 10.9375 20.03125 L 14.3125 46.90625 L 17.9375 26.1875 L 21.3125 41.90625 L 25.5625 23.71875 L 28.03125 37.6875 L 32.3125 22.9375 L 34.84375 33.0625 L 38.375 19.8125 C 43.199321 18.83144 46.28125 17.354051 46.28125 15.71875 C 46.28125 12.767211 36.298079 10.375 24 10.375 z " fill="#729fcf" fill-rule="evenodd" stroke="#204a87" stroke-width="1px" stroke-linecap="butt" stroke-linejoin="round" stroke-opacity="1"/>
      <path d="M 24.013525,20.535861 C 29.915498,20.535861 35.256377,19.860148 39.169775,19.061611 C 41.126474,18.662343 42.702812,18.185066 43.857275,17.628422 C 45.011738,17.071777 45.794775,16.382816 45.794775,15.758562 C 45.794775,15.111496 45.011739,14.383887 43.857275,13.827243 C 42.702811,13.270598 41.126474,12.706404 39.169775,12.307136 C 35.256377,11.508599 29.915498,10.878502 24.013525,10.878502 C 18.111552,10.878502 12.739423,11.552057 8.826025,12.350594 C 6.8693258,12.749862 5.2929887,13.270598 4.138525,13.827243 C 2.9840613,14.383887 2.201025,14.939123 2.201025,15.758562 C 2.201025,16.578001 2.9840613,17.071777 4.138525,17.628422 C 5.2929887,18.185066 6.8693258,18.662343 8.826025,19.061611 M 8.826025,19.061611 C 12.739423,19.860148 18.111552,20.535861 24.013525,20.535861 M 24.013525,11.738416 C 29.832893,11.738416 35.083852,12.397075 38.857275,13.16705 C 40.743987,13.552037 42.268014,14.087721 43.263525,14.567724 C 44.259036,15.047727 44.669775,15.382119 44.669775,15.758562 C 44.669775,16.135005 44.259035,16.407937 43.263525,16.88794 C 42.268015,17.367943 40.743986,17.840596 38.857275,18.225584 C 35.083852,18.995559 29.832893,19.652061 24.013525,19.652061 C 18.194157,19.652061 12.911948,18.995559 9.138525,18.225584 C 7.2518134,17.840596 5.7277856,17.367943 4.732275,16.88794 C 3.7367644,16.407937 3.326025,16.135005 3.326025,15.758562 C 3.326025,15.382119 3.7367644,15.047727 4.732275,14.567724 C 5.7277856,14.087721 7.2518134,13.595495 9.138525,13.210508 C 12.911948,12.440533 18.194157,11.738416 24.013525,11.738416 z" opacity="0.5" fill="#eeeeec" fill-opacity="1" fill-rule="evenodd" stroke="none" stroke-width="1.14379668" stroke-linecap="square" stroke-linejoin="miter" stroke-miterlimit="4" stroke-dasharray="none" stroke-dashoffset="0" stroke-opacity="1"/>
      <path d="M 20.220231,11.00128 L 29.138835,20.368103 L 24.21511,20.523801 L 15.180538,11.370038 L 20.220231,11.00128 z" fill="#cedeef" fill-rule="evenodd" stroke="none" stroke-width="1px" stroke-linecap="butt" stroke-linejoin="miter" stroke-opacity="1" fill-opacity="1"/>
      <path d="M 11.915494,19.751601 L 14.481435,40.163892 L 16.883534,26.331262 C 17.063009,24.706837 18.883373,24.906404 18.990928,26.307141 L 21.349551,37.344431 L 24.506026,23.859196 C 24.638961,22.408831 26.471791,22.275606 26.60475,23.905247 L 28.263765,33.272727 L 31.29544,22.83487 C 31.632247,21.540581 33.13534,21.733731 33.309125,22.813719 L 34.878361,29.055058 L 37.413573,19.544174" fill="none" fill-rule="evenodd" stroke="#eeeeec" stroke-width="1" stroke-linecap="butt" stroke-linejoin="miter" stroke-opacity="1" stroke-miterlimit="7" stroke-dasharray="none" opacity="0.5"/>
      <path d="M 24.796795,10.87836 L 33.030717,20.024802 L 31.057055,20.187957 L 22.768625,10.889409 L 24.796795,10.87836 z" fill="#cedeef" fill-opacity="1" fill-rule="evenodd" stroke="none" stroke-width="1px" stroke-linecap="butt" stroke-linejoin="miter" stroke-opacity="1"/>
      <path d="M 28.334973,10.980368 L 36.114053,19.582843 L 35.115621,19.734949 L 27.305235,10.925125 L 28.334973,10.980368 z" fill="#cedeef" fill-opacity="1" fill-rule="evenodd" stroke="none" stroke-width="1px" stroke-linecap="butt" stroke-linejoin="miter" stroke-opacity="1"/>
      <path d="M 24.276568,13.090909 C 16.315524,13.346336 6.9039601,14.217661 2.7042254,16.717029 C 1.2906531,14.934699 3.0729833,13.828425 9.2804097,12.230474 C 14.942786,11.172151 20.784867,10.869471 24.346019,10.869471 C 29.101893,10.979193 33.366216,11.259555 39.81653,12.450903 C 39.81653,12.450903 46.858243,14.197968 45.56759,16.287597 C 41.461334,13.814622 33.948682,12.944657 24.276568,13.090909 z" fill="url(#linearGradient7386)" fill-rule="evenodd" stroke="none" stroke-width="1px" stroke-linecap="butt" stroke-linejoin="miter" stroke-opacity="1" fill-opacity="1"/>
      <path transform="matrix(2.1222827,0,0,1.9923469,-21.167011,-16.108233)" d="M 19.113956,13.797695 A 1.4135723,1.5057619 0 1 1 16.286812,13.797695 A 1.4135723,1.5057619 0 1 1 19.113956,13.797695 z" opacity="1" fill="url(#radialGradient7398)" fill-opacity="1" fill-rule="evenodd" stroke="none" stroke-width="1" stroke-linecap="square" stroke-linejoin="round" stroke-miterlimit="7" stroke-dasharray="none" stroke-dashoffset="0" stroke-opacity="1"/>
      <path transform="matrix(1.8078704,0,0,1.0169271,-3.0298763,-5.1757356)" d="M 11.247119,16.471191 A 0.553137,0.49167734 0 1 1 10.140845,16.471191 A 0.553137,0.49167734 0 1 1 11.247119,16.471191 z" opacity="1" fill="#eeeeec" fill-opacity="1" fill-rule="evenodd" stroke="none" stroke-width="1" stroke-linecap="square" stroke-linejoin="round" stroke-miterlimit="7" stroke-dasharray="none" stroke-dashoffset="0" stroke-opacity="1"/>
      <path transform="matrix(4.4701088,0,0,4.6249999,-65.908816,-42.825863)" d="M 19.113956,13.797695 A 1.4135723,1.5057619 0 1 1 16.286812,13.797695 A 1.4135723,1.5057619 0 1 1 19.113956,13.797695 z" opacity="1" fill="url(#radialGradient7402)" fill-opacity="1" fill-rule="evenodd" stroke="none" stroke-width="1" stroke-linecap="square" stroke-linejoin="round" stroke-miterlimit="7" stroke-dasharray="none" stroke-dashoffset="0" stroke-opacity="1"/>
      <path transform="matrix(4.5196759,0,0,1.0169271,-35.029811,3.0059967)" d="M 11.247119,16.471191 A 0.553137,0.49167734 0 1 1 10.140845,16.471191 A 0.553137,0.49167734 0 1 1 11.247119,16.471191 z" opacity="1" fill="url(#radialGradient7438)" fill-opacity="1" fill-rule="evenodd" stroke="none" stroke-width="1" stroke-linecap="square" stroke-linejoin="round" stroke-miterlimit="7" stroke-dasharray="none" stroke-dashoffset="0" stroke-opacity="1"/>
      <path transform="matrix(0,4.5196759,-2.0338541,0,46.913063,-27.253478)" d="M 11.247119,16.471191 A 0.553137,0.49167734 0 1 1 10.140845,16.471191 A 0.553137,0.49167734 0 1 1 11.247119,16.471191 z" opacity="1" fill="url(#radialGradient7448)" fill-opacity="1" fill-rule="evenodd" stroke="none" stroke-width="1" stroke-linecap="square" stroke-linejoin="round" stroke-miterlimit="7" stroke-dasharray="none" stroke-dashoffset="0" stroke-opacity="1"/>
    </g>
  </g>
</svg>
