<?xml version="1.0" encoding="UTF-8" standalone="no"?>
<!DOCTYPE svg PUBLIC "-//W3C//DTD SVG 1.1 Tiny//EN" "http://www.w3.org/Graphics/SVG/1.1/DTD/svg11-tiny.dtd">
<svg xmlns="http://www.w3.org/2000/svg" baseProfile="tiny" height="146.3063" version="1.0" viewBox="0 0 122 146" width="121.60006">
<g transform="translate(-376.34283,-407.78046)">
<g transform="matrix(0.697424,0,0,0.697424,376.34283,407.78046)">
<path d="M 43.086,0.358597 C 40.9414,0.00358582 38.8399,-0.0824127 36.8086,0.0775909 L 36.8047,0.0735931 C 36.8047,0.0735931 22.9219,1.01859 22.2891,1.0696 C 9.6211,2.08159 0,12.5036 0,26.8896 L 0,196.554 L 14.1914,209.781 L 156.789,185.816 C 166.606,184.113 174.356,172.538 174.356,160.038 L 174.356,21.8786 L 43.086,0.358597 z" style="fill:#006225;fill-rule:evenodd;stroke:none"/>
<path d="M 174.356,160.042 C 174.356,172.538 166.606,184.113 156.789,185.816 L 14.1914,209.781 L 14.1914,25.9916 C 14.1914,9.2726 27.5313,-2.20741 43.086,0.358597 L 174.356,21.8786 L 174.356,160.042 z" style="fill:#80c342;fill-rule:evenodd;stroke:none"/>
<path d="M 130.422,45.9136 L 141.938,47.1516 L 141.938,67.3626 L 154.899,68.2766 L 154.899,80.9566 L 141.938,80.3586 L 141.938,126.691 C 141.938,130.723 142.383,133.316 143.278,134.48 C 144.078,135.547 145.324,136.074 146.988,136.074 C 147.149,136.074 147.317,136.07 147.485,136.058 C 150.035,135.91 152.805,135.125 155.828,133.75 L 155.828,145.398 C 150.692,147.656 145.653,148.996 140.703,149.418 C 139.985,149.473 139.293,149.504 138.625,149.504 C 134.145,149.504 130.719,148.203 128.379,145.57 C 125.649,142.519 124.289,137.621 124.289,130.898 L 124.289,79.5426 L 118.063,79.2576 L 118.063,65.6716 L 125.649,66.2186 L 130.422,45.9136 z" style="fill:#ffffff;fill-rule:evenodd;stroke:none"/>
<path d="M 154.899,80.9566 L 141.938,80.3586 L 141.938,80.6366 L 148.883,80.9566 L 154.899,80.9566 z" style="fill:#006225;fill-rule:evenodd;stroke:none"/>
<path d="M 144.637,135.598 C 145.297,135.926 146.067,136.074 146.988,136.074 C 147.149,136.074 147.317,136.07 147.485,136.058 C 150.035,135.91 152.805,135.125 155.828,133.75 L 149.813,133.75 C 147.992,134.582 146.281,135.207 144.637,135.598 z" style="fill:#006225;fill-rule:evenodd;stroke:none"/>
<path d="M 128.379,145.57 C 125.649,142.519 124.289,137.621 124.289,130.898 L 124.289,79.5426 L 118.063,79.2576 L 118.063,65.6716 L 112.047,65.6716 L 112.047,68.7066 C 112.918,71.9796 113.602,75.5266 114.11,79.3506 L 118.274,79.5426 L 118.274,130.898 C 118.274,137.621 119.641,142.519 122.364,145.57 C 124.707,148.203 128.129,149.504 132.61,149.504 L 138.625,149.504 C 134.145,149.504 130.719,148.203 128.379,145.57 z M 130.422,45.9136 L 124.406,45.9136 L 119.738,65.7966 L 125.649,66.2186 L 130.422,45.9136 z" style="fill:#006225;fill-rule:evenodd;stroke:none"/>
<path d="M 91.1528,132.406 C 93.5038,126.355 94.6638,114.492 94.6638,96.7886 C 94.6638,80.8976 93.5158,69.9726 91.1798,63.9756 C 88.8438,57.9486 85.3478,54.6946 80.6598,54.2846 C 80.3008,54.2536 79.9458,54.2336 79.6018,54.2336 C 75.2618,54.2336 71.9218,56.7686 69.5938,61.8586 C 67.0738,67.4016 65.8008,78.8976 65.8008,96.2966 C 65.8008,113.113 67.0388,125.047 69.5348,132.051 C 71.8908,138.723 75.4138,142.027 80.0388,142.027 C 80.2458,142.027 80.4488,142.019 80.6598,142.008 C 85.2928,141.715 88.7808,138.512 91.1528,132.406 M 109.129,136.156 C 105.012,145.863 98.7348,152.214 90.1408,155.156 C 91.0078,159.605 92.3168,162.597 94.0628,164.175 C 95.4138,165.386 97.4958,165.996 100.285,165.996 C 101.09,165.996 101.953,165.941 102.875,165.839 L 102.875,178.964 L 96.9138,179.746 C 95.1558,179.976 93.4878,180.089 91.9098,180.089 C 86.6918,180.089 82.4648,178.824 79.2888,176.265 C 75.0818,172.886 71.9808,166.371 69.9918,156.73 C 60.8555,154.785 53.7344,148.976 48.8008,139.226 C 43.7969,129.324 41.25,114.836 41.25,95.8866 C 41.25,75.4566 44.7344,60.3786 51.5938,50.8156 C 57.3828,42.7456 65.4568,38.7766 75.6168,38.7766 C 77.2458,38.7766 78.9258,38.8786 80.6598,39.0816 C 92.6138,40.4566 101.278,46.0976 106.918,55.8706 C 112.453,65.4326 115.172,79.1366 115.172,97.1326 C 115.172,113.617 113.172,126.582 109.129,136.156 z" style="fill:#ffffff;fill-rule:evenodd;stroke:none"/>
<path d="M 100.281,165.996 C 101.09,165.996 101.953,165.941 102.871,165.839 L 98.0348,165.839 C 98.7108,165.945 99.4878,165.996 100.281,165.996 z" style="fill:#006225;fill-rule:evenodd;stroke:none"/>
<path d="M 84.8518,63.9756 C 87.1878,69.9726 88.3358,80.8976 88.3358,96.7886 C 88.3358,114.492 87.1758,126.355 84.8238,132.406 C 82.9298,137.285 80.2968,140.308 76.9608,141.476 C 77.9258,141.844 78.9528,142.027 80.0388,142.027 C 80.2458,142.027 80.4488,142.019 80.6598,142.008 C 85.2928,141.715 88.7808,138.512 91.1528,132.406 C 93.5038,126.355 94.6638,114.492 94.6638,96.7886 C 94.6638,80.8976 93.5158,69.9726 91.1798,63.9756 C 88.8438,57.9486 85.3478,54.6946 80.6598,54.2846 C 80.3008,54.2536 79.9458,54.2336 79.6018,54.2336 C 78.5118,54.2336 77.4848,54.3936 76.5198,54.7146 L 76.5198,54.7146 L 76.5158,54.7146 C 80.1168,55.8356 82.8948,58.9296 84.8518,63.9756 z M 82.5078,178.253 C 82.3948,178.203 82.2808,178.148 82.1718,178.093 C 82.1598,178.089 82.1488,178.081 82.1368,178.078 C 82.0348,178.027 81.9298,177.972 81.8278,177.921 C 81.8088,177.91 81.7888,177.902 81.7698,177.89 C 81.6798,177.839 81.5858,177.792 81.4918,177.742 C 81.4648,177.726 81.4378,177.706 81.4058,177.691 C 81.3238,177.648 81.2418,177.601 81.1638,177.554 C 81.1248,177.531 81.0858,177.507 81.0508,177.484 C 80.9808,177.445 80.9058,177.402 80.8358,177.359 C 80.7888,177.328 80.7418,177.3 80.6958,177.269 C 80.6368,177.23 80.5778,177.195 80.5198,177.156 C 80.4608,177.117 80.4058,177.081 80.3518,177.042 C 80.3008,177.011 80.2498,176.976 80.2028,176.945 C 80.1368,176.898 80.0708,176.851 80.0078,176.808 C 79.9688,176.781 79.9298,176.753 79.8948,176.726 C 79.8168,176.671 79.7418,176.613 79.6638,176.554 C 79.6408,176.538 79.6138,176.519 79.5858,176.499 C 79.4878,176.421 79.3868,176.343 79.2888,176.265 C 75.0818,172.886 71.9808,166.371 69.9918,156.73 C 60.8555,154.785 53.7344,148.976 48.8008,139.226 C 43.7969,129.324 41.25,114.836 41.25,95.8866 C 41.25,75.4566 44.7344,60.3786 51.5938,50.8156 C 57.3828,42.7456 65.4568,38.7766 75.6168,38.7766 C 75.6528,38.7766 69.2658,38.7766 69.2658,38.7766 L 69.2658,38.7766 C 59.1172,38.7846 51.0508,42.7536 45.2656,50.8156 C 38.4102,60.3786 34.9219,75.4566 34.9219,95.8866 C 34.9219,114.836 37.4688,129.324 42.4727,139.226 C 47.4063,148.976 54.5274,154.785 63.6638,156.73 C 65.6528,166.371 68.7538,172.886 72.9608,176.265 C 76.1368,178.824 80.3638,180.089 85.5858,180.089 C 85.6838,180.089 85.7848,180.089 85.8828,180.085 L 91.4218,180.085 C 88.0158,180.035 85.0388,179.425 82.5158,178.257 C 82.5158,178.257 82.5118,178.257 82.5078,178.253 z" style="fill:#006225;fill-rule:evenodd;stroke:none"/>
</g>
</g>
</svg>
